<mxfile host="app.diagrams.net" agent="Mozilla/5.0 (Windows NT 10.0; Win64; x64) AppleWebKit/537.36 (KHTML, like Gecko) Chrome/132.0.0.0 Safari/537.36 OPR/117.0.0.0" version="26.1.1" pages="2">
  <diagram id="R2lEEEUBdFMjLlhIrx00" name="Modelo de Chen ">
    <mxGraphModel grid="1" page="1" gridSize="10" guides="1" tooltips="1" connect="1" arrows="1" fold="1" pageScale="1" pageWidth="850" pageHeight="1100" math="0" shadow="0" extFonts="Permanent Marker^https://fonts.googleapis.com/css?family=Permanent+Marker">
      <root>
        <mxCell id="0" />
        <mxCell id="1" parent="0" />
        <mxCell id="J_CiJStVV-i970G0l3rG-106" style="edgeStyle=none;rounded=0;orthogonalLoop=1;jettySize=auto;html=1;exitX=0.5;exitY=0;exitDx=0;exitDy=0;entryX=0.5;entryY=1;entryDx=0;entryDy=0;strokeColor=none;" edge="1" parent="1" source="J_CiJStVV-i970G0l3rG-45" target="J_CiJStVV-i970G0l3rG-102">
          <mxGeometry relative="1" as="geometry" />
        </mxCell>
        <mxCell id="J_CiJStVV-i970G0l3rG-45" value="&lt;b&gt;proyecto&lt;/b&gt;" style="swimlane;fontStyle=0;childLayout=stackLayout;horizontal=1;startSize=30;horizontalStack=0;resizeParent=1;resizeParentMax=0;resizeLast=0;collapsible=1;marginBottom=0;whiteSpace=wrap;html=1;fillColor=#e1d5e7;strokeColor=#9673a6;" vertex="1" parent="1">
          <mxGeometry x="1750" y="-1575" width="160" height="350" as="geometry">
            <mxRectangle x="1540" y="-770" width="60" height="30" as="alternateBounds" />
          </mxGeometry>
        </mxCell>
        <mxCell id="J_CiJStVV-i970G0l3rG-46" value="&lt;font style=&quot;font-size: 16px;&quot;&gt;&lt;font face=&quot;Consolas, Consolas_EmbeddedFont, Consolas_MSFontService, monospace&quot;&gt;&lt;span style=&quot;font-variant-ligatures: none; white-space-collapse: preserve;&quot;&gt;id_proyecto (PK) &lt;br&gt;&lt;br&gt;&lt;/span&gt;&lt;/font&gt;&lt;font face=&quot;Consolas, Consolas_EmbeddedFont, Consolas_MSFontService, monospace&quot;&gt;&lt;span style=&quot;font-variant-ligatures: none; white-space-collapse: preserve;&quot;&gt;id_tipo&lt;/span&gt;&lt;/font&gt;&lt;span style=&quot;color: light-dark(rgb(0, 0, 0), rgb(255, 255, 255)); white-space-collapse: preserve; background-color: transparent; font-variant-ligatures: none; font-family: Consolas, Consolas_EmbeddedFont, Consolas_MSFontService, monospace;&quot;&gt;(FK) &lt;/span&gt;&lt;/font&gt;&lt;div&gt;&lt;font style=&quot;font-size: 16px;&quot;&gt;&lt;div&gt;&lt;br&gt;&lt;/div&gt;&lt;font face=&quot;Consolas, Consolas_EmbeddedFont, Consolas_MSFontService, monospace&quot;&gt;&lt;span style=&quot;font-variant-ligatures: none; white-space-collapse: preserve;&quot;&gt;titulo &lt;br&gt;&lt;br&gt;descripcion &lt;br&gt;&lt;/span&gt;&lt;/font&gt;&lt;/font&gt;&lt;div&gt;&lt;font style=&quot;font-size: 16px;&quot;&gt;&lt;font face=&quot;Consolas, Consolas_EmbeddedFont, Consolas_MSFontService, monospace&quot;&gt;&lt;span style=&quot;font-variant-ligatures: none; white-space-collapse: preserve;&quot;&gt;&lt;br&gt;fecha_inscripcion&lt;/span&gt;&lt;/font&gt;&amp;nbsp;&lt;br&gt;&lt;/font&gt;&lt;div&gt;&lt;font style=&quot;font-size: 16px;&quot;&gt;&lt;br&gt;&lt;/font&gt;&lt;/div&gt;&lt;/div&gt;&lt;/div&gt;" style="text;strokeColor=none;fillColor=none;align=left;verticalAlign=middle;spacingLeft=4;spacingRight=4;overflow=hidden;points=[[0,0.5],[1,0.5]];portConstraint=eastwest;rotatable=0;whiteSpace=wrap;html=1;" vertex="1" parent="J_CiJStVV-i970G0l3rG-45">
          <mxGeometry y="30" width="160" height="320" as="geometry" />
        </mxCell>
        <mxCell id="J_CiJStVV-i970G0l3rG-54" value="&lt;b&gt;curso&lt;/b&gt;" style="swimlane;fontStyle=0;childLayout=stackLayout;horizontal=1;startSize=30;horizontalStack=0;resizeParent=1;resizeParentMax=0;resizeLast=0;collapsible=1;marginBottom=0;whiteSpace=wrap;html=1;fillColor=#e1d5e7;strokeColor=#9673a6;" vertex="1" parent="1">
          <mxGeometry x="1350" y="-1360" width="140" height="150" as="geometry" />
        </mxCell>
        <mxCell id="J_CiJStVV-i970G0l3rG-55" value="&lt;div&gt;id_curso (PK)&lt;/div&gt;&lt;div&gt;&lt;br&gt;&lt;/div&gt;&lt;div&gt;numero_grupo&lt;/div&gt;&lt;div&gt;&lt;br&gt;&lt;/div&gt;&lt;div&gt;id_asignatura (fk)&lt;/div&gt;&lt;div&gt;&lt;br&gt;&lt;/div&gt;&lt;div&gt;id_profesor (FK)&lt;/div&gt;" style="text;align=left;verticalAlign=middle;spacingLeft=4;spacingRight=4;overflow=hidden;points=[[0,0.5],[1,0.5]];portConstraint=eastwest;rotatable=0;whiteSpace=wrap;html=1;" vertex="1" parent="J_CiJStVV-i970G0l3rG-54">
          <mxGeometry y="30" width="140" height="120" as="geometry" />
        </mxCell>
        <mxCell id="J_CiJStVV-i970G0l3rG-63" value="&lt;b&gt;evaluacion&lt;/b&gt;" style="swimlane;fontStyle=0;childLayout=stackLayout;horizontal=1;startSize=30;horizontalStack=0;resizeParent=1;resizeParentMax=0;resizeLast=0;collapsible=1;marginBottom=0;whiteSpace=wrap;html=1;fillColor=#e1d5e7;strokeColor=#9673a6;" vertex="1" parent="1">
          <mxGeometry x="1760" y="-1960" width="140" height="180" as="geometry" />
        </mxCell>
        <mxCell id="J_CiJStVV-i970G0l3rG-64" value="&lt;div&gt;id_evaluacion (PK)&amp;nbsp;&lt;/div&gt;&lt;div&gt;&lt;br&gt;&lt;/div&gt;&lt;div&gt;puntaje&amp;nbsp;&lt;/div&gt;&lt;div&gt;&lt;br&gt;&lt;/div&gt;&lt;div&gt;comentario&amp;nbsp;&lt;/div&gt;&lt;div&gt;&lt;br&gt;&lt;/div&gt;&lt;div&gt;id_proyecto (FK)&lt;br&gt;&lt;br&gt;id_profesor (FK)&lt;/div&gt;" style="text;align=left;verticalAlign=middle;spacingLeft=4;spacingRight=4;overflow=hidden;points=[[0,0.5],[1,0.5]];portConstraint=eastwest;rotatable=0;whiteSpace=wrap;html=1;" vertex="1" parent="J_CiJStVV-i970G0l3rG-63">
          <mxGeometry y="30" width="140" height="150" as="geometry" />
        </mxCell>
        <mxCell id="J_CiJStVV-i970G0l3rG-88" value="&lt;b&gt;usuario&lt;/b&gt;" style="swimlane;fontStyle=0;childLayout=stackLayout;horizontal=1;startSize=30;horizontalStack=0;resizeParent=1;resizeParentMax=0;resizeLast=0;collapsible=1;marginBottom=0;whiteSpace=wrap;html=1;fillColor=#e1d5e7;strokeColor=#9673a6;" vertex="1" parent="1">
          <mxGeometry x="1760" y="-930" width="140" height="130" as="geometry" />
        </mxCell>
        <mxCell id="J_CiJStVV-i970G0l3rG-89" value="&lt;div&gt;id_usuario (PK)&lt;/div&gt;&lt;div&gt;&lt;br&gt;&lt;/div&gt;&lt;div&gt;correo_institucional&lt;/div&gt;&lt;div&gt;&lt;br&gt;&lt;/div&gt;&lt;div&gt;contraseÃ±a&lt;/div&gt;&lt;div&gt;&lt;br&gt;&lt;/div&gt;" style="text;strokeColor=none;fillColor=none;align=left;verticalAlign=middle;spacingLeft=4;spacingRight=4;overflow=hidden;points=[[0,0.5],[1,0.5]];portConstraint=eastwest;rotatable=0;whiteSpace=wrap;html=1;" vertex="1" parent="J_CiJStVV-i970G0l3rG-88">
          <mxGeometry y="30" width="140" height="100" as="geometry" />
        </mxCell>
        <mxCell id="J_CiJStVV-i970G0l3rG-90" value="&lt;b&gt;rol&lt;/b&gt;" style="swimlane;fontStyle=0;childLayout=stackLayout;horizontal=1;startSize=30;horizontalStack=0;resizeParent=1;resizeParentMax=0;resizeLast=0;collapsible=1;marginBottom=0;whiteSpace=wrap;html=1;fillColor=#e1d5e7;strokeColor=#9673a6;" vertex="1" parent="1">
          <mxGeometry x="2010" y="-1190" width="140" height="130" as="geometry" />
        </mxCell>
        <mxCell id="J_CiJStVV-i970G0l3rG-92" value="id_rol (PK)&lt;div&gt;&lt;div&gt;&lt;br&gt;&lt;/div&gt;&lt;div&gt;rol&lt;/div&gt;&lt;div&gt;&lt;br&gt;&lt;/div&gt;&lt;/div&gt;&lt;div&gt;id_permiso (FK)&lt;/div&gt;" style="text;strokeColor=none;fillColor=none;align=left;verticalAlign=middle;spacingLeft=4;spacingRight=4;overflow=hidden;points=[[0,0.5],[1,0.5]];portConstraint=eastwest;rotatable=0;whiteSpace=wrap;html=1;" vertex="1" parent="J_CiJStVV-i970G0l3rG-90">
          <mxGeometry y="30" width="140" height="100" as="geometry" />
        </mxCell>
        <mxCell id="J_CiJStVV-i970G0l3rG-99" value="vincula" style="rhombus;whiteSpace=wrap;html=1;fillColor=#cce5ff;strokeColor=#36393d;" vertex="1" parent="1">
          <mxGeometry x="1580" y="-1340" width="80" height="80" as="geometry" />
        </mxCell>
        <mxCell id="J_CiJStVV-i970G0l3rG-102" value="evalua" style="rhombus;whiteSpace=wrap;html=1;fillColor=light-dark(#D4E1F5,#000000);" vertex="1" parent="1">
          <mxGeometry x="1790" y="-1740" width="80" height="80" as="geometry" />
        </mxCell>
        <mxCell id="J_CiJStVV-i970G0l3rG-112" value="" style="endArrow=none;html=1;rounded=0;exitX=0.5;exitY=0;exitDx=0;exitDy=0;entryX=0.497;entryY=1.015;entryDx=0;entryDy=0;entryPerimeter=0;" edge="1" parent="1" source="J_CiJStVV-i970G0l3rG-102" target="J_CiJStVV-i970G0l3rG-64">
          <mxGeometry width="50" height="50" relative="1" as="geometry">
            <mxPoint x="1850" y="-1480" as="sourcePoint" />
            <mxPoint x="1840" y="-1830" as="targetPoint" />
          </mxGeometry>
        </mxCell>
        <mxCell id="J_CiJStVV-i970G0l3rG-144" value="1:N" style="edgeLabel;html=1;align=center;verticalAlign=middle;resizable=0;points=[];" connectable="0" vertex="1" parent="J_CiJStVV-i970G0l3rG-112">
          <mxGeometry x="-0.0019" relative="1" as="geometry">
            <mxPoint as="offset" />
          </mxGeometry>
        </mxCell>
        <mxCell id="J_CiJStVV-i970G0l3rG-117" value="" style="endArrow=none;html=1;rounded=0;entryX=1;entryY=0.5;entryDx=0;entryDy=0;exitX=-0.007;exitY=0.763;exitDx=0;exitDy=0;exitPerimeter=0;" edge="1" parent="1" source="J_CiJStVV-i970G0l3rG-46" target="J_CiJStVV-i970G0l3rG-99">
          <mxGeometry width="50" height="50" relative="1" as="geometry">
            <mxPoint x="1720" y="-1440" as="sourcePoint" />
            <mxPoint x="1840" y="-1560" as="targetPoint" />
          </mxGeometry>
        </mxCell>
        <mxCell id="J_CiJStVV-i970G0l3rG-152" value="1:N" style="edgeLabel;html=1;align=center;verticalAlign=middle;resizable=0;points=[];" connectable="0" vertex="1" parent="J_CiJStVV-i970G0l3rG-117">
          <mxGeometry x="0.1967" y="-1" relative="1" as="geometry">
            <mxPoint x="14" y="1" as="offset" />
          </mxGeometry>
        </mxCell>
        <mxCell id="J_CiJStVV-i970G0l3rG-148" value="" style="endArrow=none;html=1;rounded=0;exitX=0.5;exitY=1;exitDx=0;exitDy=0;entryX=0.5;entryY=0;entryDx=0;entryDy=0;" edge="1" parent="1" source="J_CiJStVV-i970G0l3rG-102" target="J_CiJStVV-i970G0l3rG-45">
          <mxGeometry width="50" height="50" relative="1" as="geometry">
            <mxPoint x="1840" y="-1590" as="sourcePoint" />
            <mxPoint x="1890" y="-1640" as="targetPoint" />
          </mxGeometry>
        </mxCell>
        <mxCell id="J_CiJStVV-i970G0l3rG-150" value="1:1" style="edgeLabel;html=1;align=center;verticalAlign=middle;resizable=0;points=[];" connectable="0" vertex="1" parent="J_CiJStVV-i970G0l3rG-148">
          <mxGeometry x="-0.1467" relative="1" as="geometry">
            <mxPoint as="offset" />
          </mxGeometry>
        </mxCell>
        <mxCell id="J_CiJStVV-i970G0l3rG-154" value="M:N" style="text;html=1;align=center;verticalAlign=middle;whiteSpace=wrap;rounded=0;" vertex="1" parent="1">
          <mxGeometry x="1590" y="-1330" width="60" height="30" as="geometry" />
        </mxCell>
        <mxCell id="tPzyJt9eVWV6iVS8aPOD-1" value="&lt;b&gt;profesor&lt;/b&gt;" style="swimlane;fontStyle=0;childLayout=stackLayout;horizontal=1;startSize=30;horizontalStack=0;resizeParent=1;resizeParentMax=0;resizeLast=0;collapsible=1;marginBottom=0;whiteSpace=wrap;html=1;fillColor=#e1d5e7;strokeColor=#9673a6;" vertex="1" parent="1">
          <mxGeometry x="1350" y="-770" width="140" height="200" as="geometry" />
        </mxCell>
        <mxCell id="tPzyJt9eVWV6iVS8aPOD-2" value="&lt;div&gt;id_profesor&lt;/div&gt;&lt;div&gt;&lt;br&gt;&lt;/div&gt;&lt;div&gt;nombre&lt;/div&gt;&lt;div&gt;&lt;br&gt;&lt;/div&gt;&lt;div&gt;nombre_2&lt;/div&gt;&lt;div&gt;&lt;br&gt;&lt;/div&gt;&lt;div&gt;apellido&lt;/div&gt;&lt;div&gt;&lt;br&gt;&lt;/div&gt;&lt;div&gt;apellido_2&lt;/div&gt;&lt;div&gt;&lt;br&gt;&lt;/div&gt;&lt;div&gt;id_usuario&lt;/div&gt;" style="text;strokeColor=none;fillColor=none;align=left;verticalAlign=middle;spacingLeft=4;spacingRight=4;overflow=hidden;points=[[0,0.5],[1,0.5]];portConstraint=eastwest;rotatable=0;whiteSpace=wrap;html=1;" vertex="1" parent="tPzyJt9eVWV6iVS8aPOD-1">
          <mxGeometry y="30" width="140" height="170" as="geometry" />
        </mxCell>
        <mxCell id="tPzyJt9eVWV6iVS8aPOD-5" value="&lt;b&gt;estudiante&lt;/b&gt;" style="swimlane;fontStyle=0;childLayout=stackLayout;horizontal=1;startSize=30;horizontalStack=0;resizeParent=1;resizeParentMax=0;resizeLast=0;collapsible=1;marginBottom=0;whiteSpace=wrap;html=1;fillColor=#e1d5e7;strokeColor=#9673a6;" vertex="1" parent="1">
          <mxGeometry x="2100" y="-780" width="140" height="190" as="geometry" />
        </mxCell>
        <mxCell id="tPzyJt9eVWV6iVS8aPOD-6" value="&lt;div&gt;id_estudiante&lt;/div&gt;&lt;div&gt;&lt;br&gt;&lt;/div&gt;&lt;div&gt;nombre&lt;/div&gt;&lt;div&gt;&lt;br&gt;&lt;/div&gt;&lt;div&gt;apellido&lt;/div&gt;&lt;div&gt;&lt;br&gt;&lt;/div&gt;&lt;div&gt;id_usuario (FK)&lt;/div&gt;&lt;div&gt;&lt;br&gt;&lt;/div&gt;&lt;div&gt;id_programa (FK)&lt;/div&gt;&lt;div&gt;&lt;br&gt;&lt;/div&gt;" style="text;strokeColor=none;fillColor=none;align=left;verticalAlign=middle;spacingLeft=4;spacingRight=4;overflow=hidden;points=[[0,0.5],[1,0.5]];portConstraint=eastwest;rotatable=0;whiteSpace=wrap;html=1;" vertex="1" parent="tPzyJt9eVWV6iVS8aPOD-5">
          <mxGeometry y="30" width="140" height="160" as="geometry" />
        </mxCell>
        <mxCell id="tPzyJt9eVWV6iVS8aPOD-10" value="participa&lt;br&gt;(proyecto, usuario, rol)" style="rhombus;whiteSpace=wrap;html=1;strokeColor=#36393d;fillColor=#cce5ff;" vertex="1" parent="1">
          <mxGeometry x="1775" y="-1150" width="110" height="100" as="geometry" />
        </mxCell>
        <mxCell id="tPzyJt9eVWV6iVS8aPOD-11" value="&lt;b&gt;permiso&lt;/b&gt;" style="swimlane;fontStyle=0;childLayout=stackLayout;horizontal=1;startSize=30;horizontalStack=0;resizeParent=1;resizeParentMax=0;resizeLast=0;collapsible=1;marginBottom=0;whiteSpace=wrap;html=1;fillColor=#e1d5e7;strokeColor=#9673a6;" vertex="1" parent="1">
          <mxGeometry x="2410" y="-1220" width="130" height="240" as="geometry" />
        </mxCell>
        <mxCell id="tPzyJt9eVWV6iVS8aPOD-12" value="id_permiso (PK)&lt;div&gt;&lt;br&gt;&lt;/div&gt;&lt;div&gt;&lt;div&gt;crear&lt;/div&gt;&lt;div&gt;&lt;br&gt;&lt;/div&gt;&lt;div&gt;leer&lt;/div&gt;&lt;div&gt;&lt;br&gt;&lt;/div&gt;&lt;div&gt;actualizar&lt;/div&gt;&lt;div&gt;&lt;br&gt;&lt;/div&gt;&lt;div&gt;borrar&lt;/div&gt;&lt;div&gt;&lt;br&gt;&lt;/div&gt;&lt;div&gt;leer_nota&lt;/div&gt;&lt;div&gt;&lt;br&gt;&lt;/div&gt;&lt;div&gt;actualizar_nota&lt;/div&gt;&lt;/div&gt;&lt;div&gt;&lt;br&gt;&lt;/div&gt;" style="text;strokeColor=none;fillColor=none;align=left;verticalAlign=middle;spacingLeft=4;spacingRight=4;overflow=hidden;points=[[0,0.5],[1,0.5]];portConstraint=eastwest;rotatable=0;whiteSpace=wrap;html=1;" vertex="1" parent="tPzyJt9eVWV6iVS8aPOD-11">
          <mxGeometry y="30" width="130" height="210" as="geometry" />
        </mxCell>
        <mxCell id="tPzyJt9eVWV6iVS8aPOD-15" value="posee" style="rhombus;whiteSpace=wrap;html=1;fillColor=light-dark(#D4E1F5,#000000);" vertex="1" parent="1">
          <mxGeometry x="1620" y="-740" width="80" height="80" as="geometry" />
        </mxCell>
        <mxCell id="tPzyJt9eVWV6iVS8aPOD-16" value="posee" style="rhombus;whiteSpace=wrap;html=1;fillColor=light-dark(#D4E1F5,#000000);" vertex="1" parent="1">
          <mxGeometry x="1940" y="-740" width="80" height="80" as="geometry" />
        </mxCell>
        <mxCell id="tPzyJt9eVWV6iVS8aPOD-18" value="" style="endArrow=none;html=1;rounded=0;exitX=0;exitY=0.5;exitDx=0;exitDy=0;entryX=0.6;entryY=1.013;entryDx=0;entryDy=0;entryPerimeter=0;" edge="1" parent="1" source="tPzyJt9eVWV6iVS8aPOD-16" target="J_CiJStVV-i970G0l3rG-89">
          <mxGeometry width="50" height="50" relative="1" as="geometry">
            <mxPoint x="1700" y="-690" as="sourcePoint" />
            <mxPoint x="1840" y="-770" as="targetPoint" />
            <Array as="points">
              <mxPoint x="1844" y="-700" />
            </Array>
          </mxGeometry>
        </mxCell>
        <mxCell id="tPzyJt9eVWV6iVS8aPOD-130" value="1:1" style="edgeLabel;html=1;align=center;verticalAlign=middle;resizable=0;points=[];" connectable="0" vertex="1" parent="tPzyJt9eVWV6iVS8aPOD-18">
          <mxGeometry x="-0.1964" y="2" relative="1" as="geometry">
            <mxPoint x="23" y="-2" as="offset" />
          </mxGeometry>
        </mxCell>
        <mxCell id="tPzyJt9eVWV6iVS8aPOD-20" value="" style="endArrow=none;html=1;rounded=0;exitX=1;exitY=0.5;exitDx=0;exitDy=0;entryX=0.004;entryY=0.312;entryDx=0;entryDy=0;entryPerimeter=0;" edge="1" parent="1" source="tPzyJt9eVWV6iVS8aPOD-16" target="tPzyJt9eVWV6iVS8aPOD-6">
          <mxGeometry width="50" height="50" relative="1" as="geometry">
            <mxPoint x="1720" y="-670" as="sourcePoint" />
            <mxPoint x="2080" y="-720" as="targetPoint" />
          </mxGeometry>
        </mxCell>
        <mxCell id="tPzyJt9eVWV6iVS8aPOD-131" value="1:1" style="edgeLabel;html=1;align=center;verticalAlign=middle;resizable=0;points=[];" connectable="0" vertex="1" parent="tPzyJt9eVWV6iVS8aPOD-20">
          <mxGeometry x="-0.0876" y="-2" relative="1" as="geometry">
            <mxPoint x="-1" as="offset" />
          </mxGeometry>
        </mxCell>
        <mxCell id="tPzyJt9eVWV6iVS8aPOD-22" value="" style="endArrow=none;html=1;rounded=0;entryX=0;entryY=0.5;entryDx=0;entryDy=0;exitX=1.007;exitY=0.235;exitDx=0;exitDy=0;exitPerimeter=0;" edge="1" parent="1" source="tPzyJt9eVWV6iVS8aPOD-2" target="tPzyJt9eVWV6iVS8aPOD-15">
          <mxGeometry width="50" height="50" relative="1" as="geometry">
            <mxPoint x="1500" y="-700" as="sourcePoint" />
            <mxPoint x="1610" y="-700" as="targetPoint" />
          </mxGeometry>
        </mxCell>
        <mxCell id="tPzyJt9eVWV6iVS8aPOD-132" value="1:1" style="edgeLabel;html=1;align=center;verticalAlign=middle;resizable=0;points=[];" connectable="0" vertex="1" parent="tPzyJt9eVWV6iVS8aPOD-22">
          <mxGeometry x="0.0591" y="-2" relative="1" as="geometry">
            <mxPoint as="offset" />
          </mxGeometry>
        </mxCell>
        <mxCell id="tPzyJt9eVWV6iVS8aPOD-23" value="" style="endArrow=none;html=1;rounded=0;entryX=0.5;entryY=0;entryDx=0;entryDy=0;exitX=0.5;exitY=1;exitDx=0;exitDy=0;" edge="1" parent="1" source="tPzyJt9eVWV6iVS8aPOD-10" target="J_CiJStVV-i970G0l3rG-88">
          <mxGeometry width="50" height="50" relative="1" as="geometry">
            <mxPoint x="1470" y="-690" as="sourcePoint" />
            <mxPoint x="1620" y="-690" as="targetPoint" />
          </mxGeometry>
        </mxCell>
        <mxCell id="tPzyJt9eVWV6iVS8aPOD-49" value="1:N" style="edgeLabel;html=1;align=center;verticalAlign=middle;resizable=0;points=[];" vertex="1" connectable="0" parent="tPzyJt9eVWV6iVS8aPOD-23">
          <mxGeometry x="0.0734" y="2" relative="1" as="geometry">
            <mxPoint as="offset" />
          </mxGeometry>
        </mxCell>
        <mxCell id="tPzyJt9eVWV6iVS8aPOD-32" value="" style="endArrow=none;html=1;rounded=0;exitX=0.5;exitY=0;exitDx=0;exitDy=0;entryX=0.5;entryY=1.005;entryDx=0;entryDy=0;entryPerimeter=0;" edge="1" parent="1" source="tPzyJt9eVWV6iVS8aPOD-10" target="J_CiJStVV-i970G0l3rG-46">
          <mxGeometry width="50" height="50" relative="1" as="geometry">
            <mxPoint x="1920" y="-1160" as="sourcePoint" />
            <mxPoint x="1970" y="-1210" as="targetPoint" />
          </mxGeometry>
        </mxCell>
        <mxCell id="tPzyJt9eVWV6iVS8aPOD-50" value="1:N" style="edgeLabel;html=1;align=center;verticalAlign=middle;resizable=0;points=[];" vertex="1" connectable="0" parent="tPzyJt9eVWV6iVS8aPOD-32">
          <mxGeometry x="-0.0969" y="1" relative="1" as="geometry">
            <mxPoint as="offset" />
          </mxGeometry>
        </mxCell>
        <mxCell id="tPzyJt9eVWV6iVS8aPOD-33" value="&lt;b&gt;programa_academico&lt;/b&gt;" style="swimlane;fontStyle=0;childLayout=stackLayout;horizontal=1;startSize=30;horizontalStack=0;resizeParent=1;resizeParentMax=0;resizeLast=0;collapsible=1;marginBottom=0;whiteSpace=wrap;html=1;fillColor=#e1d5e7;strokeColor=#9673a6;" vertex="1" parent="1">
          <mxGeometry x="980" y="-1020" width="140" height="160" as="geometry" />
        </mxCell>
        <mxCell id="tPzyJt9eVWV6iVS8aPOD-34" value="&lt;div&gt;id_programa (PK)&lt;/div&gt;&lt;div&gt;&lt;br&gt;&lt;/div&gt;&lt;div&gt;nombre_programa&lt;/div&gt;&lt;div&gt;&lt;br&gt;&lt;/div&gt;&lt;div&gt;facultad&lt;/div&gt;" style="text;strokeColor=none;fillColor=none;align=left;verticalAlign=middle;spacingLeft=4;spacingRight=4;overflow=hidden;points=[[0,0.5],[1,0.5]];portConstraint=eastwest;rotatable=0;whiteSpace=wrap;html=1;" vertex="1" parent="tPzyJt9eVWV6iVS8aPOD-33">
          <mxGeometry y="30" width="140" height="130" as="geometry" />
        </mxCell>
        <mxCell id="IndjYIhEWE5u66Gvtxxx-3" value="" style="endArrow=none;html=1;rounded=0;exitX=1;exitY=0.5;exitDx=0;exitDy=0;entryX=0.417;entryY=1.018;entryDx=0;entryDy=0;entryPerimeter=0;" edge="1" parent="1" source="tPzyJt9eVWV6iVS8aPOD-15" target="J_CiJStVV-i970G0l3rG-89">
          <mxGeometry width="50" height="50" relative="1" as="geometry">
            <mxPoint x="1490" y="-550" as="sourcePoint" />
            <mxPoint x="1810" y="-700" as="targetPoint" />
            <Array as="points">
              <mxPoint x="1818" y="-700" />
            </Array>
          </mxGeometry>
        </mxCell>
        <mxCell id="tPzyJt9eVWV6iVS8aPOD-129" value="1:1" style="edgeLabel;html=1;align=center;verticalAlign=middle;resizable=0;points=[];" connectable="0" vertex="1" parent="IndjYIhEWE5u66Gvtxxx-3">
          <mxGeometry x="-0.3256" relative="1" as="geometry">
            <mxPoint x="-1" as="offset" />
          </mxGeometry>
        </mxCell>
        <mxCell id="tPzyJt9eVWV6iVS8aPOD-51" value="M:N" style="text;html=1;align=center;verticalAlign=middle;whiteSpace=wrap;rounded=0;" vertex="1" parent="1">
          <mxGeometry x="1800" y="-1145" width="60" height="30" as="geometry" />
        </mxCell>
        <mxCell id="tPzyJt9eVWV6iVS8aPOD-53" value="&lt;b&gt;tipo_proyecto&lt;/b&gt;" style="swimlane;fontStyle=0;childLayout=stackLayout;horizontal=1;startSize=30;horizontalStack=0;resizeParent=1;resizeParentMax=0;resizeLast=0;collapsible=1;marginBottom=0;whiteSpace=wrap;html=1;fillColor=#e1d5e7;strokeColor=#9673a6;" vertex="1" parent="1">
          <mxGeometry x="2220" y="-1620" width="140" height="90" as="geometry" />
        </mxCell>
        <mxCell id="tPzyJt9eVWV6iVS8aPOD-54" value="&lt;div&gt;id_tipo (PK)&lt;/div&gt;&lt;div&gt;&lt;br&gt;&lt;/div&gt;&lt;div&gt;tipo_poyecto&lt;/div&gt;" style="text;strokeColor=none;fillColor=none;align=left;verticalAlign=middle;spacingLeft=4;spacingRight=4;overflow=hidden;points=[[0,0.5],[1,0.5]];portConstraint=eastwest;rotatable=0;whiteSpace=wrap;html=1;" vertex="1" parent="tPzyJt9eVWV6iVS8aPOD-53">
          <mxGeometry y="30" width="140" height="60" as="geometry" />
        </mxCell>
        <mxCell id="tPzyJt9eVWV6iVS8aPOD-57" value="define" style="rhombus;whiteSpace=wrap;html=1;fillColor=light-dark(#D4E1F5,#000000);" vertex="1" parent="1">
          <mxGeometry x="2050" y="-1600" width="80" height="80" as="geometry" />
        </mxCell>
        <mxCell id="tPzyJt9eVWV6iVS8aPOD-58" value="" style="endArrow=none;html=1;rounded=0;exitX=0;exitY=0.5;exitDx=0;exitDy=0;entryX=0.998;entryY=0.041;entryDx=0;entryDy=0;entryPerimeter=0;" edge="1" parent="1" source="tPzyJt9eVWV6iVS8aPOD-57" target="J_CiJStVV-i970G0l3rG-45">
          <mxGeometry width="50" height="50" relative="1" as="geometry">
            <mxPoint x="2020" y="-1550" as="sourcePoint" />
            <mxPoint x="1920" y="-1560" as="targetPoint" />
          </mxGeometry>
        </mxCell>
        <mxCell id="tPzyJt9eVWV6iVS8aPOD-59" value="1:N" style="edgeLabel;html=1;align=center;verticalAlign=middle;resizable=0;points=[];" connectable="0" vertex="1" parent="tPzyJt9eVWV6iVS8aPOD-58">
          <mxGeometry x="0.1967" y="-1" relative="1" as="geometry">
            <mxPoint as="offset" />
          </mxGeometry>
        </mxCell>
        <mxCell id="tPzyJt9eVWV6iVS8aPOD-60" value="&lt;b&gt;asignatura&lt;/b&gt;" style="swimlane;fontStyle=0;childLayout=stackLayout;horizontal=1;startSize=30;horizontalStack=0;resizeParent=1;resizeParentMax=0;resizeLast=0;collapsible=1;marginBottom=0;whiteSpace=wrap;html=1;fillColor=#e1d5e7;strokeColor=#9673a6;" vertex="1" parent="1">
          <mxGeometry x="980" y="-1550" width="140" height="320" as="geometry" />
        </mxCell>
        <mxCell id="tPzyJt9eVWV6iVS8aPOD-61" value="&lt;div&gt;id_asignatura (PK)&lt;/div&gt;&lt;div&gt;&lt;br&gt;&lt;/div&gt;&lt;div&gt;id_programa (FK)&lt;/div&gt;&lt;div&gt;&lt;br&gt;&lt;/div&gt;&lt;div&gt;departam&lt;span style=&quot;background-color: transparent; color: light-dark(rgb(0, 0, 0), rgb(255, 255, 255));&quot;&gt;ento&lt;/span&gt;&lt;/div&gt;&lt;div&gt;&lt;br&gt;&lt;/div&gt;&lt;div&gt;nombre&lt;/div&gt;&lt;div&gt;&lt;br&gt;&lt;/div&gt;&lt;div&gt;nivel_estudio&lt;/div&gt;&lt;div&gt;&lt;br&gt;&lt;/div&gt;&lt;div&gt;nivel_formacion&lt;/div&gt;&lt;div&gt;&lt;br&gt;&lt;/div&gt;&lt;div&gt;Ciencias&lt;/div&gt;&lt;div&gt;&lt;br&gt;&lt;/div&gt;&lt;div&gt;Modalidad&lt;br&gt;&lt;/div&gt;" style="text;strokeColor=none;fillColor=none;align=left;verticalAlign=middle;spacingLeft=4;spacingRight=4;overflow=hidden;points=[[0,0.5],[1,0.5]];portConstraint=eastwest;rotatable=0;whiteSpace=wrap;html=1;" vertex="1" parent="tPzyJt9eVWV6iVS8aPOD-60">
          <mxGeometry y="30" width="140" height="290" as="geometry" />
        </mxCell>
        <mxCell id="tPzyJt9eVWV6iVS8aPOD-64" value="" style="endArrow=none;html=1;rounded=0;exitX=0;exitY=0.5;exitDx=0;exitDy=0;entryX=1;entryY=0.5;entryDx=0;entryDy=0;" edge="1" parent="1" source="tPzyJt9eVWV6iVS8aPOD-54" target="tPzyJt9eVWV6iVS8aPOD-57">
          <mxGeometry width="50" height="50" relative="1" as="geometry">
            <mxPoint x="2050" y="-1530" as="sourcePoint" />
            <mxPoint x="1929" y="-1530" as="targetPoint" />
          </mxGeometry>
        </mxCell>
        <mxCell id="tPzyJt9eVWV6iVS8aPOD-144" value="1:1" style="edgeLabel;html=1;align=center;verticalAlign=middle;resizable=0;points=[];" connectable="0" vertex="1" parent="tPzyJt9eVWV6iVS8aPOD-64">
          <mxGeometry x="0.1261" y="1" relative="1" as="geometry">
            <mxPoint x="1" as="offset" />
          </mxGeometry>
        </mxCell>
        <mxCell id="tPzyJt9eVWV6iVS8aPOD-66" value="define" style="rhombus;whiteSpace=wrap;html=1;fillColor=light-dark(#D4E1F5,#000000);" vertex="1" parent="1">
          <mxGeometry x="1190" y="-1340" width="80" height="80" as="geometry" />
        </mxCell>
        <mxCell id="tPzyJt9eVWV6iVS8aPOD-76" value="dispone" style="rhombus;whiteSpace=wrap;html=1;fillColor=light-dark(#D4E1F5,#000000);" vertex="1" parent="1">
          <mxGeometry x="1010" y="-1170" width="80" height="80" as="geometry" />
        </mxCell>
        <mxCell id="IndjYIhEWE5u66Gvtxxx-9" value="" style="endArrow=none;html=1;rounded=0;entryX=0;entryY=0.5;entryDx=0;entryDy=0;exitX=1.006;exitY=0.758;exitDx=0;exitDy=0;exitPerimeter=0;" edge="1" parent="1" source="tPzyJt9eVWV6iVS8aPOD-61" target="tPzyJt9eVWV6iVS8aPOD-66">
          <mxGeometry width="50" height="50" relative="1" as="geometry">
            <mxPoint x="1130" y="-1310" as="sourcePoint" />
            <mxPoint x="1060" y="-1722" as="targetPoint" />
          </mxGeometry>
        </mxCell>
        <mxCell id="tPzyJt9eVWV6iVS8aPOD-124" value="1:1" style="edgeLabel;html=1;align=center;verticalAlign=middle;resizable=0;points=[];" vertex="1" connectable="0" parent="IndjYIhEWE5u66Gvtxxx-9">
          <mxGeometry x="0.0614" y="-1" relative="1" as="geometry">
            <mxPoint as="offset" />
          </mxGeometry>
        </mxCell>
        <mxCell id="IndjYIhEWE5u66Gvtxxx-10" value="" style="endArrow=none;html=1;rounded=0;exitX=1;exitY=0.5;exitDx=0;exitDy=0;entryX=0.001;entryY=0.253;entryDx=0;entryDy=0;entryPerimeter=0;" edge="1" parent="1" source="tPzyJt9eVWV6iVS8aPOD-66" target="J_CiJStVV-i970G0l3rG-55">
          <mxGeometry width="50" height="50" relative="1" as="geometry">
            <mxPoint x="1070" y="-1630" as="sourcePoint" />
            <mxPoint x="1330" y="-1425" as="targetPoint" />
          </mxGeometry>
        </mxCell>
        <mxCell id="tPzyJt9eVWV6iVS8aPOD-125" value="1:N" style="edgeLabel;html=1;align=center;verticalAlign=middle;resizable=0;points=[];" vertex="1" connectable="0" parent="IndjYIhEWE5u66Gvtxxx-10">
          <mxGeometry x="-0.1904" y="-2" relative="1" as="geometry">
            <mxPoint as="offset" />
          </mxGeometry>
        </mxCell>
        <mxCell id="IndjYIhEWE5u66Gvtxxx-13" value="" style="endArrow=none;html=1;rounded=0;entryX=0;entryY=0.5;entryDx=0;entryDy=0;exitX=0.997;exitY=0.253;exitDx=0;exitDy=0;exitPerimeter=0;" edge="1" parent="1" source="J_CiJStVV-i970G0l3rG-55" target="J_CiJStVV-i970G0l3rG-99">
          <mxGeometry width="50" height="50" relative="1" as="geometry">
            <mxPoint x="1490" y="-1420" as="sourcePoint" />
            <mxPoint x="1100" y="-1682" as="targetPoint" />
          </mxGeometry>
        </mxCell>
        <mxCell id="tPzyJt9eVWV6iVS8aPOD-96" value="1:N" style="edgeLabel;html=1;align=center;verticalAlign=middle;resizable=0;points=[];" vertex="1" connectable="0" parent="IndjYIhEWE5u66Gvtxxx-13">
          <mxGeometry x="-0.0941" y="-2" relative="1" as="geometry">
            <mxPoint x="10" y="-2" as="offset" />
          </mxGeometry>
        </mxCell>
        <mxCell id="tPzyJt9eVWV6iVS8aPOD-80" value="&lt;b&gt;era&lt;/b&gt;" style="swimlane;fontStyle=0;childLayout=stackLayout;horizontal=1;startSize=30;horizontalStack=0;resizeParent=1;resizeParentMax=0;resizeLast=0;collapsible=1;marginBottom=0;whiteSpace=wrap;html=1;fillColor=#e1d5e7;strokeColor=#9673a6;" vertex="1" parent="1">
          <mxGeometry x="1350" y="-1510" width="140" height="110" as="geometry" />
        </mxCell>
        <mxCell id="tPzyJt9eVWV6iVS8aPOD-81" value="id_era (PK)&lt;div&gt;&lt;br&gt;&lt;/div&gt;&lt;div&gt;descripcion&lt;/div&gt;&lt;div&gt;&lt;br&gt;&lt;/div&gt;&lt;div&gt;id_asignatura (fk)&lt;/div&gt;" style="text;strokeColor=none;fillColor=none;align=left;verticalAlign=middle;spacingLeft=4;spacingRight=4;overflow=hidden;points=[[0,0.5],[1,0.5]];portConstraint=eastwest;rotatable=0;whiteSpace=wrap;html=1;" vertex="1" parent="tPzyJt9eVWV6iVS8aPOD-80">
          <mxGeometry y="30" width="140" height="80" as="geometry" />
        </mxCell>
        <mxCell id="tPzyJt9eVWV6iVS8aPOD-84" value="asocia" style="rhombus;whiteSpace=wrap;html=1;fillColor=#cce5ff;strokeColor=#36393d;" vertex="1" parent="1">
          <mxGeometry x="1580" y="-1495" width="80" height="80" as="geometry" />
        </mxCell>
        <mxCell id="tPzyJt9eVWV6iVS8aPOD-85" value="emparienta" style="rhombus;whiteSpace=wrap;html=1;fillColor=light-dark(#D4E1F5,#000000);" vertex="1" parent="1">
          <mxGeometry x="1190" y="-1495" width="80" height="80" as="geometry" />
        </mxCell>
        <mxCell id="tPzyJt9eVWV6iVS8aPOD-86" value="" style="endArrow=none;html=1;rounded=0;entryX=0;entryY=0.5;entryDx=0;entryDy=0;exitX=0.999;exitY=0.221;exitDx=0;exitDy=0;exitPerimeter=0;" edge="1" parent="1" source="tPzyJt9eVWV6iVS8aPOD-61" target="tPzyJt9eVWV6iVS8aPOD-85">
          <mxGeometry width="50" height="50" relative="1" as="geometry">
            <mxPoint x="1140" y="-1480" as="sourcePoint" />
            <mxPoint x="1230" y="-1560" as="targetPoint" />
            <Array as="points" />
          </mxGeometry>
        </mxCell>
        <mxCell id="tPzyJt9eVWV6iVS8aPOD-119" value="1:1" style="edgeLabel;html=1;align=center;verticalAlign=middle;resizable=0;points=[];" vertex="1" connectable="0" parent="tPzyJt9eVWV6iVS8aPOD-86">
          <mxGeometry x="-0.1217" y="2" relative="1" as="geometry">
            <mxPoint y="2" as="offset" />
          </mxGeometry>
        </mxCell>
        <mxCell id="tPzyJt9eVWV6iVS8aPOD-90" value="" style="endArrow=none;html=1;rounded=0;exitX=1;exitY=0.5;exitDx=0;exitDy=0;entryX=-0.002;entryY=0.322;entryDx=0;entryDy=0;entryPerimeter=0;" edge="1" parent="1" source="tPzyJt9eVWV6iVS8aPOD-85" target="tPzyJt9eVWV6iVS8aPOD-81">
          <mxGeometry width="50" height="50" relative="1" as="geometry">
            <mxPoint x="1260" y="-1675" as="sourcePoint" />
            <mxPoint x="1320" y="-1625" as="targetPoint" />
            <Array as="points" />
          </mxGeometry>
        </mxCell>
        <mxCell id="tPzyJt9eVWV6iVS8aPOD-120" value="1:N" style="edgeLabel;html=1;align=center;verticalAlign=middle;resizable=0;points=[];" vertex="1" connectable="0" parent="tPzyJt9eVWV6iVS8aPOD-90">
          <mxGeometry x="-0.1471" y="-2" relative="1" as="geometry">
            <mxPoint as="offset" />
          </mxGeometry>
        </mxCell>
        <mxCell id="tPzyJt9eVWV6iVS8aPOD-91" value="" style="endArrow=none;html=1;rounded=0;entryX=0;entryY=0.5;entryDx=0;entryDy=0;exitX=1.004;exitY=0.319;exitDx=0;exitDy=0;exitPerimeter=0;" edge="1" parent="1" source="tPzyJt9eVWV6iVS8aPOD-81" target="tPzyJt9eVWV6iVS8aPOD-84">
          <mxGeometry width="50" height="50" relative="1" as="geometry">
            <mxPoint x="1500" y="-1460" as="sourcePoint" />
            <mxPoint x="1370" y="-1640" as="targetPoint" />
            <Array as="points" />
          </mxGeometry>
        </mxCell>
        <mxCell id="tPzyJt9eVWV6iVS8aPOD-94" value="1:N" style="edgeLabel;html=1;align=center;verticalAlign=middle;resizable=0;points=[];" vertex="1" connectable="0" parent="tPzyJt9eVWV6iVS8aPOD-91">
          <mxGeometry x="-0.238" y="2" relative="1" as="geometry">
            <mxPoint x="12" y="3" as="offset" />
          </mxGeometry>
        </mxCell>
        <mxCell id="tPzyJt9eVWV6iVS8aPOD-92" value="" style="endArrow=none;html=1;rounded=0;exitX=1;exitY=0.5;exitDx=0;exitDy=0;entryX=-0.002;entryY=0.283;entryDx=0;entryDy=0;entryPerimeter=0;" edge="1" parent="1" source="tPzyJt9eVWV6iVS8aPOD-84" target="J_CiJStVV-i970G0l3rG-46">
          <mxGeometry width="50" height="50" relative="1" as="geometry">
            <mxPoint x="1260" y="-1630" as="sourcePoint" />
            <mxPoint x="1740" y="-1450" as="targetPoint" />
            <Array as="points" />
          </mxGeometry>
        </mxCell>
        <mxCell id="tPzyJt9eVWV6iVS8aPOD-161" value="1:N" style="edgeLabel;html=1;align=center;verticalAlign=middle;resizable=0;points=[];" connectable="0" vertex="1" parent="tPzyJt9eVWV6iVS8aPOD-92">
          <mxGeometry x="0.2427" y="-1" relative="1" as="geometry">
            <mxPoint x="-9" y="-1" as="offset" />
          </mxGeometry>
        </mxCell>
        <mxCell id="tPzyJt9eVWV6iVS8aPOD-99" value="" style="endArrow=none;html=1;rounded=0;entryX=0;entryY=0.5;entryDx=0;entryDy=0;exitX=1;exitY=0.593;exitDx=0;exitDy=0;exitPerimeter=0;" edge="1" parent="1" source="J_CiJStVV-i970G0l3rG-92" target="tPzyJt9eVWV6iVS8aPOD-100">
          <mxGeometry width="50" height="50" relative="1" as="geometry">
            <mxPoint x="2260" y="-1100" as="sourcePoint" />
            <mxPoint x="2320" y="-1145" as="targetPoint" />
          </mxGeometry>
        </mxCell>
        <mxCell id="tPzyJt9eVWV6iVS8aPOD-112" value="1:1" style="edgeLabel;html=1;align=center;verticalAlign=middle;resizable=0;points=[];" connectable="0" vertex="1" parent="tPzyJt9eVWV6iVS8aPOD-99">
          <mxGeometry x="0.0656" y="1" relative="1" as="geometry">
            <mxPoint as="offset" />
          </mxGeometry>
        </mxCell>
        <mxCell id="tPzyJt9eVWV6iVS8aPOD-100" value="restringe" style="rhombus;whiteSpace=wrap;html=1;fillColor=light-dark(#D4E1F5,#000000);" vertex="1" parent="1">
          <mxGeometry x="2240" y="-1140" width="80" height="80" as="geometry" />
        </mxCell>
        <mxCell id="tPzyJt9eVWV6iVS8aPOD-101" value="" style="endArrow=none;html=1;rounded=0;exitX=1;exitY=0.5;exitDx=0;exitDy=0;entryX=0;entryY=0.428;entryDx=0;entryDy=0;entryPerimeter=0;" edge="1" parent="1" source="tPzyJt9eVWV6iVS8aPOD-100" target="tPzyJt9eVWV6iVS8aPOD-12">
          <mxGeometry width="50" height="50" relative="1" as="geometry">
            <mxPoint x="2520" y="-1095" as="sourcePoint" />
            <mxPoint x="2409" y="-1105" as="targetPoint" />
          </mxGeometry>
        </mxCell>
        <mxCell id="tPzyJt9eVWV6iVS8aPOD-113" value="1:1" style="edgeLabel;html=1;align=center;verticalAlign=middle;resizable=0;points=[];" connectable="0" vertex="1" parent="tPzyJt9eVWV6iVS8aPOD-101">
          <mxGeometry x="-0.0021" relative="1" as="geometry">
            <mxPoint as="offset" />
          </mxGeometry>
        </mxCell>
        <mxCell id="tPzyJt9eVWV6iVS8aPOD-103" value="" style="endArrow=none;html=1;rounded=0;exitX=0.5;exitY=0;exitDx=0;exitDy=0;entryX=0.5;entryY=1.006;entryDx=0;entryDy=0;entryPerimeter=0;" edge="1" parent="1" source="tPzyJt9eVWV6iVS8aPOD-76" target="tPzyJt9eVWV6iVS8aPOD-61">
          <mxGeometry width="50" height="50" relative="1" as="geometry">
            <mxPoint x="1020" y="-1180" as="sourcePoint" />
            <mxPoint x="1070" y="-1230" as="targetPoint" />
          </mxGeometry>
        </mxCell>
        <mxCell id="tPzyJt9eVWV6iVS8aPOD-126" value="1:N" style="edgeLabel;html=1;align=center;verticalAlign=middle;resizable=0;points=[];" connectable="0" vertex="1" parent="tPzyJt9eVWV6iVS8aPOD-103">
          <mxGeometry x="0.248" y="-2" relative="1" as="geometry">
            <mxPoint as="offset" />
          </mxGeometry>
        </mxCell>
        <mxCell id="tPzyJt9eVWV6iVS8aPOD-104" value="" style="endArrow=none;html=1;rounded=0;entryX=0.5;entryY=1;entryDx=0;entryDy=0;exitX=0.5;exitY=0;exitDx=0;exitDy=0;" edge="1" parent="1" source="tPzyJt9eVWV6iVS8aPOD-33" target="tPzyJt9eVWV6iVS8aPOD-76">
          <mxGeometry width="50" height="50" relative="1" as="geometry">
            <mxPoint x="1020" y="-1030" as="sourcePoint" />
            <mxPoint x="1070" y="-1080" as="targetPoint" />
          </mxGeometry>
        </mxCell>
        <mxCell id="tPzyJt9eVWV6iVS8aPOD-127" value="1:1" style="edgeLabel;html=1;align=center;verticalAlign=middle;resizable=0;points=[];" connectable="0" vertex="1" parent="tPzyJt9eVWV6iVS8aPOD-104">
          <mxGeometry x="-0.079" y="-2" relative="1" as="geometry">
            <mxPoint x="-2" y="-8" as="offset" />
          </mxGeometry>
        </mxCell>
        <mxCell id="tPzyJt9eVWV6iVS8aPOD-109" value="" style="endArrow=none;html=1;rounded=0;exitX=1;exitY=0.5;exitDx=0;exitDy=0;entryX=0;entryY=0.596;entryDx=0;entryDy=0;entryPerimeter=0;" edge="1" parent="1" source="tPzyJt9eVWV6iVS8aPOD-10" target="J_CiJStVV-i970G0l3rG-92">
          <mxGeometry width="50" height="50" relative="1" as="geometry">
            <mxPoint x="1960" y="-1080" as="sourcePoint" />
            <mxPoint x="2010" y="-1130" as="targetPoint" />
          </mxGeometry>
        </mxCell>
        <mxCell id="tPzyJt9eVWV6iVS8aPOD-110" value="1:N" style="edgeLabel;html=1;align=center;verticalAlign=middle;resizable=0;points=[];" vertex="1" connectable="0" parent="tPzyJt9eVWV6iVS8aPOD-109">
          <mxGeometry x="-0.0143" y="1" relative="1" as="geometry">
            <mxPoint as="offset" />
          </mxGeometry>
        </mxCell>
        <mxCell id="tPzyJt9eVWV6iVS8aPOD-118" value="M:N" style="text;html=1;align=center;verticalAlign=middle;whiteSpace=wrap;rounded=0;" vertex="1" parent="1">
          <mxGeometry x="1590" y="-1485" width="60" height="30" as="geometry" />
        </mxCell>
        <mxCell id="tPzyJt9eVWV6iVS8aPOD-133" value="estudia" style="rhombus;whiteSpace=wrap;html=1;fillColor=light-dark(#D4E1F5,var(--ge-dark-color, #121212));" vertex="1" parent="1">
          <mxGeometry x="1010" y="-580" width="80" height="80" as="geometry" />
        </mxCell>
        <mxCell id="tPzyJt9eVWV6iVS8aPOD-134" value="" style="endArrow=none;html=1;rounded=0;exitX=1;exitY=0.5;exitDx=0;exitDy=0;entryX=0.5;entryY=1.015;entryDx=0;entryDy=0;entryPerimeter=0;" edge="1" parent="1" source="tPzyJt9eVWV6iVS8aPOD-133" target="tPzyJt9eVWV6iVS8aPOD-6">
          <mxGeometry width="50" height="50" relative="1" as="geometry">
            <mxPoint x="1210" y="-440" as="sourcePoint" />
            <mxPoint x="1260" y="-490" as="targetPoint" />
            <Array as="points">
              <mxPoint x="2170" y="-540" />
            </Array>
          </mxGeometry>
        </mxCell>
        <mxCell id="tPzyJt9eVWV6iVS8aPOD-136" value="1:N" style="edgeLabel;html=1;align=center;verticalAlign=middle;resizable=0;points=[];" connectable="0" vertex="1" parent="tPzyJt9eVWV6iVS8aPOD-134">
          <mxGeometry x="-0.6933" y="-1" relative="1" as="geometry">
            <mxPoint x="874" y="-1" as="offset" />
          </mxGeometry>
        </mxCell>
        <mxCell id="tPzyJt9eVWV6iVS8aPOD-135" value="" style="endArrow=none;html=1;rounded=0;entryX=0.496;entryY=1.014;entryDx=0;entryDy=0;entryPerimeter=0;exitX=0.5;exitY=0;exitDx=0;exitDy=0;" edge="1" parent="1" source="tPzyJt9eVWV6iVS8aPOD-133" target="tPzyJt9eVWV6iVS8aPOD-34">
          <mxGeometry width="50" height="50" relative="1" as="geometry">
            <mxPoint x="1020" y="-640" as="sourcePoint" />
            <mxPoint x="1070" y="-690" as="targetPoint" />
          </mxGeometry>
        </mxCell>
        <mxCell id="tPzyJt9eVWV6iVS8aPOD-137" value="1:1" style="edgeLabel;html=1;align=center;verticalAlign=middle;resizable=0;points=[];" connectable="0" vertex="1" parent="tPzyJt9eVWV6iVS8aPOD-135">
          <mxGeometry x="0.7968" y="-1" relative="1" as="geometry">
            <mxPoint as="offset" />
          </mxGeometry>
        </mxCell>
        <mxCell id="tPzyJt9eVWV6iVS8aPOD-138" value="instruye" style="rhombus;whiteSpace=wrap;html=1;fillColor=light-dark(#D4E1F5,#000000);" vertex="1" parent="1">
          <mxGeometry x="1380" y="-1140" width="80" height="80" as="geometry" />
        </mxCell>
        <mxCell id="tPzyJt9eVWV6iVS8aPOD-140" value="" style="endArrow=none;html=1;rounded=0;exitX=0.5;exitY=0;exitDx=0;exitDy=0;entryX=0.5;entryY=1;entryDx=0;entryDy=0;" edge="1" parent="1" source="tPzyJt9eVWV6iVS8aPOD-1" target="tPzyJt9eVWV6iVS8aPOD-138">
          <mxGeometry width="50" height="50" relative="1" as="geometry">
            <mxPoint x="1410" y="-860" as="sourcePoint" />
            <mxPoint x="1460" y="-910" as="targetPoint" />
          </mxGeometry>
        </mxCell>
        <mxCell id="tPzyJt9eVWV6iVS8aPOD-143" value="1:1" style="edgeLabel;html=1;align=center;verticalAlign=middle;resizable=0;points=[];" connectable="0" vertex="1" parent="tPzyJt9eVWV6iVS8aPOD-140">
          <mxGeometry x="-0.0557" y="-1" relative="1" as="geometry">
            <mxPoint as="offset" />
          </mxGeometry>
        </mxCell>
        <mxCell id="tPzyJt9eVWV6iVS8aPOD-141" value="" style="endArrow=none;html=1;rounded=0;exitX=0.5;exitY=0;exitDx=0;exitDy=0;entryX=0.501;entryY=1.002;entryDx=0;entryDy=0;entryPerimeter=0;" edge="1" parent="1" source="tPzyJt9eVWV6iVS8aPOD-138" target="J_CiJStVV-i970G0l3rG-55">
          <mxGeometry width="50" height="50" relative="1" as="geometry">
            <mxPoint x="1390" y="-1210" as="sourcePoint" />
            <mxPoint x="1420" y="-1330" as="targetPoint" />
          </mxGeometry>
        </mxCell>
        <mxCell id="tPzyJt9eVWV6iVS8aPOD-142" value="1:N" style="edgeLabel;html=1;align=center;verticalAlign=middle;resizable=0;points=[];" connectable="0" vertex="1" parent="tPzyJt9eVWV6iVS8aPOD-141">
          <mxGeometry x="0.0845" y="-1" relative="1" as="geometry">
            <mxPoint as="offset" />
          </mxGeometry>
        </mxCell>
        <mxCell id="tPzyJt9eVWV6iVS8aPOD-151" value="&lt;div&gt;posee&lt;/div&gt;" style="rhombus;whiteSpace=wrap;html=1;fillColor=#cce5ff;strokeColor=#36393d;" vertex="1" parent="1">
          <mxGeometry x="2045" y="-1485" width="80" height="80" as="geometry" />
        </mxCell>
        <mxCell id="tPzyJt9eVWV6iVS8aPOD-152" value="entregable" style="swimlane;fontStyle=1;childLayout=stackLayout;horizontal=1;startSize=30;horizontalStack=0;resizeParent=1;resizeParentMax=0;resizeLast=0;collapsible=1;marginBottom=0;whiteSpace=wrap;html=1;fillColor=#e1d5e7;strokeColor=#9673a6;" vertex="1" parent="1">
          <mxGeometry x="2220" y="-1520" width="140" height="150" as="geometry" />
        </mxCell>
        <mxCell id="tPzyJt9eVWV6iVS8aPOD-153" value="id_entregable(PK)&lt;div&gt;&lt;br&gt;&lt;/div&gt;&lt;div&gt;id_tipo_entregable (FK)&lt;div&gt;&lt;br&gt;&lt;/div&gt;&lt;div&gt;descripcion&lt;/div&gt;&lt;/div&gt;" style="text;strokeColor=none;fillColor=none;align=left;verticalAlign=middle;spacingLeft=4;spacingRight=4;overflow=hidden;points=[[0,0.5],[1,0.5]];portConstraint=eastwest;rotatable=0;whiteSpace=wrap;html=1;" vertex="1" parent="tPzyJt9eVWV6iVS8aPOD-152">
          <mxGeometry y="30" width="140" height="120" as="geometry" />
        </mxCell>
        <mxCell id="tPzyJt9eVWV6iVS8aPOD-156" value="" style="endArrow=none;html=1;rounded=0;entryX=0;entryY=0.5;entryDx=0;entryDy=0;exitX=1.005;exitY=0.309;exitDx=0;exitDy=0;exitPerimeter=0;" edge="1" parent="1" source="J_CiJStVV-i970G0l3rG-46" target="tPzyJt9eVWV6iVS8aPOD-151">
          <mxGeometry width="50" height="50" relative="1" as="geometry">
            <mxPoint x="1920" y="-1460" as="sourcePoint" />
            <mxPoint x="2000" y="-1380" as="targetPoint" />
          </mxGeometry>
        </mxCell>
        <mxCell id="wExUM_BT1Ma3WOc5ozQl-14" value="1:1" style="edgeLabel;html=1;align=center;verticalAlign=middle;resizable=0;points=[];" connectable="0" vertex="1" parent="tPzyJt9eVWV6iVS8aPOD-156">
          <mxGeometry x="-0.1092" y="4" relative="1" as="geometry">
            <mxPoint as="offset" />
          </mxGeometry>
        </mxCell>
        <mxCell id="tPzyJt9eVWV6iVS8aPOD-157" value="" style="endArrow=none;html=1;rounded=0;exitX=1;exitY=0.5;exitDx=0;exitDy=0;entryX=0.003;entryY=0.371;entryDx=0;entryDy=0;entryPerimeter=0;" edge="1" parent="1" source="tPzyJt9eVWV6iVS8aPOD-151" target="tPzyJt9eVWV6iVS8aPOD-153">
          <mxGeometry width="50" height="50" relative="1" as="geometry">
            <mxPoint x="2200" y="-1410" as="sourcePoint" />
            <mxPoint x="2390" y="-1440" as="targetPoint" />
          </mxGeometry>
        </mxCell>
        <mxCell id="tPzyJt9eVWV6iVS8aPOD-160" value="1:N" style="edgeLabel;html=1;align=center;verticalAlign=middle;resizable=0;points=[];" connectable="0" vertex="1" parent="tPzyJt9eVWV6iVS8aPOD-157">
          <mxGeometry x="0.0717" y="-4" relative="1" as="geometry">
            <mxPoint y="-4" as="offset" />
          </mxGeometry>
        </mxCell>
        <mxCell id="tPzyJt9eVWV6iVS8aPOD-162" value="linea_investigacion" style="swimlane;fontStyle=1;childLayout=stackLayout;horizontal=1;startSize=30;horizontalStack=0;resizeParent=1;resizeParentMax=0;resizeLast=0;collapsible=1;marginBottom=0;whiteSpace=wrap;html=1;fillColor=#e1d5e7;strokeColor=#9673a6;" vertex="1" parent="1">
          <mxGeometry x="2220" y="-1360" width="140" height="120" as="geometry" />
        </mxCell>
        <mxCell id="tPzyJt9eVWV6iVS8aPOD-163" value="id_linea (PK)&lt;div&gt;&lt;br&gt;&lt;/div&gt;&lt;div&gt;linea_investigacion&lt;/div&gt;&lt;div&gt;&lt;br&gt;&lt;/div&gt;&lt;div&gt;descripcion&lt;/div&gt;" style="text;strokeColor=none;fillColor=none;align=left;verticalAlign=middle;spacingLeft=4;spacingRight=4;overflow=hidden;points=[[0,0.5],[1,0.5]];portConstraint=eastwest;rotatable=0;whiteSpace=wrap;html=1;" vertex="1" parent="tPzyJt9eVWV6iVS8aPOD-162">
          <mxGeometry y="30" width="140" height="90" as="geometry" />
        </mxCell>
        <mxCell id="tPzyJt9eVWV6iVS8aPOD-166" value="enfoca" style="rhombus;whiteSpace=wrap;html=1;fillColor=#cce5ff;strokeColor=#36393d;" vertex="1" parent="1">
          <mxGeometry x="2040" y="-1340" width="80" height="80" as="geometry" />
        </mxCell>
        <mxCell id="tPzyJt9eVWV6iVS8aPOD-167" value="" style="endArrow=none;html=1;rounded=0;entryX=0;entryY=0.5;entryDx=0;entryDy=0;exitX=1.003;exitY=0.769;exitDx=0;exitDy=0;exitPerimeter=0;" edge="1" parent="1" source="J_CiJStVV-i970G0l3rG-46" target="tPzyJt9eVWV6iVS8aPOD-166">
          <mxGeometry width="50" height="50" relative="1" as="geometry">
            <mxPoint x="1950" y="-1270" as="sourcePoint" />
            <mxPoint x="2030" y="-1320" as="targetPoint" />
          </mxGeometry>
        </mxCell>
        <mxCell id="tPzyJt9eVWV6iVS8aPOD-170" value="1:N" style="edgeLabel;html=1;align=center;verticalAlign=middle;resizable=0;points=[];" connectable="0" vertex="1" parent="tPzyJt9eVWV6iVS8aPOD-167">
          <mxGeometry x="-0.0986" y="-1" relative="1" as="geometry">
            <mxPoint as="offset" />
          </mxGeometry>
        </mxCell>
        <mxCell id="tPzyJt9eVWV6iVS8aPOD-168" value="" style="endArrow=none;html=1;rounded=0;exitX=1;exitY=0.5;exitDx=0;exitDy=0;entryX=0;entryY=0;entryDx=0;entryDy=0;entryPerimeter=0;" edge="1" parent="1" source="tPzyJt9eVWV6iVS8aPOD-166">
          <mxGeometry width="50" height="50" relative="1" as="geometry">
            <mxPoint x="2150" y="-1270" as="sourcePoint" />
            <mxPoint x="2220" y="-1300" as="targetPoint" />
          </mxGeometry>
        </mxCell>
        <mxCell id="tPzyJt9eVWV6iVS8aPOD-169" value="1:N" style="edgeLabel;html=1;align=center;verticalAlign=middle;resizable=0;points=[];" connectable="0" vertex="1" parent="tPzyJt9eVWV6iVS8aPOD-168">
          <mxGeometry x="-0.1086" relative="1" as="geometry">
            <mxPoint as="offset" />
          </mxGeometry>
        </mxCell>
        <mxCell id="tPzyJt9eVWV6iVS8aPOD-171" value="M:N" style="text;html=1;align=center;verticalAlign=middle;whiteSpace=wrap;rounded=0;" vertex="1" parent="1">
          <mxGeometry x="2050" y="-1330" width="60" height="30" as="geometry" />
        </mxCell>
        <mxCell id="tPzyJt9eVWV6iVS8aPOD-172" style="edgeStyle=none;rounded=0;orthogonalLoop=1;jettySize=auto;html=1;exitX=0.75;exitY=1;exitDx=0;exitDy=0;" edge="1" parent="1">
          <mxGeometry relative="1" as="geometry">
            <mxPoint x="2099.9999999999995" y="-1445.0000000000002" as="sourcePoint" />
            <mxPoint x="2099.9999999999995" y="-1445.0000000000002" as="targetPoint" />
          </mxGeometry>
        </mxCell>
        <mxCell id="wExUM_BT1Ma3WOc5ozQl-1" value="define" style="rhombus;whiteSpace=wrap;html=1;fillColor=#D4E1F5;" vertex="1" parent="1">
          <mxGeometry x="2490" y="-1470" width="70" height="62.5" as="geometry" />
        </mxCell>
        <mxCell id="wExUM_BT1Ma3WOc5ozQl-2" value="&lt;b&gt;tipo_entregable&lt;/b&gt;" style="swimlane;fontStyle=0;childLayout=stackLayout;horizontal=1;startSize=30;horizontalStack=0;resizeParent=1;resizeParentMax=0;resizeLast=0;collapsible=1;marginBottom=0;whiteSpace=wrap;html=1;fillColor=#e1d5e7;strokeColor=#9673a6;" vertex="1" parent="1">
          <mxGeometry x="2650" y="-1510" width="140" height="130" as="geometry" />
        </mxCell>
        <mxCell id="wExUM_BT1Ma3WOc5ozQl-3" value="id_tipo_entregable (PK)" style="text;strokeColor=none;fillColor=none;align=left;verticalAlign=middle;spacingLeft=4;spacingRight=4;overflow=hidden;points=[[0,0.5],[1,0.5]];portConstraint=eastwest;rotatable=0;whiteSpace=wrap;html=1;" vertex="1" parent="wExUM_BT1Ma3WOc5ozQl-2">
          <mxGeometry y="30" width="140" height="30" as="geometry" />
        </mxCell>
        <mxCell id="wExUM_BT1Ma3WOc5ozQl-4" value="tipo_entregable" style="text;strokeColor=none;fillColor=none;align=left;verticalAlign=middle;spacingLeft=4;spacingRight=4;overflow=hidden;points=[[0,0.5],[1,0.5]];portConstraint=eastwest;rotatable=0;whiteSpace=wrap;html=1;" vertex="1" parent="wExUM_BT1Ma3WOc5ozQl-2">
          <mxGeometry y="60" width="140" height="30" as="geometry" />
        </mxCell>
        <mxCell id="wExUM_BT1Ma3WOc5ozQl-5" value="descripcion" style="text;strokeColor=none;fillColor=none;align=left;verticalAlign=middle;spacingLeft=4;spacingRight=4;overflow=hidden;points=[[0,0.5],[1,0.5]];portConstraint=eastwest;rotatable=0;whiteSpace=wrap;html=1;" vertex="1" parent="wExUM_BT1Ma3WOc5ozQl-2">
          <mxGeometry y="90" width="140" height="40" as="geometry" />
        </mxCell>
        <mxCell id="wExUM_BT1Ma3WOc5ozQl-6" value="" style="endArrow=none;html=1;rounded=0;entryX=0;entryY=0.5;entryDx=0;entryDy=0;exitX=1;exitY=0.423;exitDx=0;exitDy=0;exitPerimeter=0;" edge="1" parent="1" source="tPzyJt9eVWV6iVS8aPOD-153" target="wExUM_BT1Ma3WOc5ozQl-1">
          <mxGeometry width="50" height="50" relative="1" as="geometry">
            <mxPoint x="2390" y="-1460" as="sourcePoint" />
            <mxPoint x="2570" y="-1680" as="targetPoint" />
          </mxGeometry>
        </mxCell>
        <mxCell id="wExUM_BT1Ma3WOc5ozQl-8" value="1:N" style="edgeLabel;html=1;align=center;verticalAlign=middle;resizable=0;points=[];" connectable="0" vertex="1" parent="wExUM_BT1Ma3WOc5ozQl-6">
          <mxGeometry x="0.026" y="-3" relative="1" as="geometry">
            <mxPoint as="offset" />
          </mxGeometry>
        </mxCell>
        <mxCell id="wExUM_BT1Ma3WOc5ozQl-7" value="" style="endArrow=none;html=1;rounded=0;exitX=1;exitY=0.5;exitDx=0;exitDy=0;entryX=0.003;entryY=0.391;entryDx=0;entryDy=0;entryPerimeter=0;" edge="1" parent="1" source="wExUM_BT1Ma3WOc5ozQl-1" target="wExUM_BT1Ma3WOc5ozQl-4">
          <mxGeometry width="50" height="50" relative="1" as="geometry">
            <mxPoint x="2370" y="-1410" as="sourcePoint" />
            <mxPoint x="2630" y="-1430" as="targetPoint" />
          </mxGeometry>
        </mxCell>
        <mxCell id="wExUM_BT1Ma3WOc5ozQl-15" value="1:1" style="edgeLabel;html=1;align=center;verticalAlign=middle;resizable=0;points=[];" connectable="0" vertex="1" parent="wExUM_BT1Ma3WOc5ozQl-7">
          <mxGeometry x="0.0608" y="2" relative="1" as="geometry">
            <mxPoint as="offset" />
          </mxGeometry>
        </mxCell>
        <mxCell id="wExUM_BT1Ma3WOc5ozQl-16" style="edgeStyle=orthogonalEdgeStyle;rounded=0;orthogonalLoop=1;jettySize=auto;html=1;exitX=0.5;exitY=1;exitDx=0;exitDy=0;" edge="1" parent="1">
          <mxGeometry relative="1" as="geometry">
            <mxPoint x="2084.9999999999995" y="-1445.0000000000002" as="sourcePoint" />
            <mxPoint x="2084.9999999999995" y="-1445.0000000000002" as="targetPoint" />
          </mxGeometry>
        </mxCell>
        <mxCell id="Mzn0NGBpgUfKZWW18m6r-1" value="determina" style="rhombus;whiteSpace=wrap;html=1;fillColor=#D4E1F5;" vertex="1" parent="1">
          <mxGeometry x="1630" y="-1910" width="80" height="80" as="geometry" />
        </mxCell>
        <mxCell id="Mzn0NGBpgUfKZWW18m6r-3" value="" style="endArrow=none;html=1;rounded=0;entryX=0.5;entryY=1;entryDx=0;entryDy=0;exitX=1;exitY=0;exitDx=0;exitDy=0;" edge="1" parent="1" source="tPzyJt9eVWV6iVS8aPOD-1" target="Mzn0NGBpgUfKZWW18m6r-1">
          <mxGeometry width="50" height="50" relative="1" as="geometry">
            <mxPoint x="1500" y="-780" as="sourcePoint" />
            <mxPoint x="1640" y="-1000" as="targetPoint" />
            <Array as="points">
              <mxPoint x="1670" y="-770" />
            </Array>
          </mxGeometry>
        </mxCell>
        <mxCell id="Mzn0NGBpgUfKZWW18m6r-25" value="1:1" style="edgeLabel;html=1;align=center;verticalAlign=middle;resizable=0;points=[];" connectable="0" vertex="1" parent="Mzn0NGBpgUfKZWW18m6r-3">
          <mxGeometry x="0.9258" y="1" relative="1" as="geometry">
            <mxPoint as="offset" />
          </mxGeometry>
        </mxCell>
        <mxCell id="Mzn0NGBpgUfKZWW18m6r-7" value="" style="endArrow=none;html=1;rounded=0;exitX=1;exitY=0.5;exitDx=0;exitDy=0;entryX=-0.011;entryY=0.396;entryDx=0;entryDy=0;entryPerimeter=0;" edge="1" parent="1" source="Mzn0NGBpgUfKZWW18m6r-1" target="J_CiJStVV-i970G0l3rG-64">
          <mxGeometry width="50" height="50" relative="1" as="geometry">
            <mxPoint x="1690" y="-1920" as="sourcePoint" />
            <mxPoint x="1740" y="-1890" as="targetPoint" />
          </mxGeometry>
        </mxCell>
        <mxCell id="Mzn0NGBpgUfKZWW18m6r-24" value="1:N" style="edgeLabel;html=1;align=center;verticalAlign=middle;resizable=0;points=[];" connectable="0" vertex="1" parent="Mzn0NGBpgUfKZWW18m6r-7">
          <mxGeometry x="-0.1894" y="-2" relative="1" as="geometry">
            <mxPoint as="offset" />
          </mxGeometry>
        </mxCell>
        <mxCell id="Mzn0NGBpgUfKZWW18m6r-9" value="&lt;b&gt;ira&lt;/b&gt;" style="swimlane;fontStyle=0;childLayout=stackLayout;horizontal=1;startSize=30;horizontalStack=0;resizeParent=1;resizeParentMax=0;resizeLast=0;collapsible=1;marginBottom=0;whiteSpace=wrap;html=1;fillColor=#e1d5e7;strokeColor=#9673a6;" vertex="1" parent="1">
          <mxGeometry x="1350" y="-1650" width="140" height="110" as="geometry" />
        </mxCell>
        <mxCell id="Mzn0NGBpgUfKZWW18m6r-10" value="id_ira (PK)&lt;div&gt;&lt;br&gt;&lt;/div&gt;&lt;div&gt;descripcion&lt;/div&gt;&lt;div&gt;&lt;br&gt;&lt;/div&gt;&lt;div&gt;id_asignatura (fk)&lt;/div&gt;" style="text;strokeColor=none;fillColor=none;align=left;verticalAlign=middle;spacingLeft=4;spacingRight=4;overflow=hidden;points=[[0,0.5],[1,0.5]];portConstraint=eastwest;rotatable=0;whiteSpace=wrap;html=1;" vertex="1" parent="Mzn0NGBpgUfKZWW18m6r-9">
          <mxGeometry y="30" width="140" height="80" as="geometry" />
        </mxCell>
        <mxCell id="Mzn0NGBpgUfKZWW18m6r-11" value="asocia" style="rhombus;whiteSpace=wrap;html=1;fillColor=#cce5ff;strokeColor=#36393d;" vertex="1" parent="1">
          <mxGeometry x="1580" y="-1635" width="80" height="80" as="geometry" />
        </mxCell>
        <mxCell id="Mzn0NGBpgUfKZWW18m6r-12" value="emparienta" style="rhombus;whiteSpace=wrap;html=1;fillColor=light-dark(#D4E1F5,#000000);" vertex="1" parent="1">
          <mxGeometry x="1190" y="-1635" width="80" height="80" as="geometry" />
        </mxCell>
        <mxCell id="Mzn0NGBpgUfKZWW18m6r-13" value="" style="endArrow=none;html=1;rounded=0;exitX=1;exitY=0.5;exitDx=0;exitDy=0;entryX=-0.002;entryY=0.322;entryDx=0;entryDy=0;entryPerimeter=0;" edge="1" parent="1" source="Mzn0NGBpgUfKZWW18m6r-12" target="Mzn0NGBpgUfKZWW18m6r-10">
          <mxGeometry width="50" height="50" relative="1" as="geometry">
            <mxPoint x="1270" y="-1710" as="sourcePoint" />
            <mxPoint x="1330" y="-1660" as="targetPoint" />
            <Array as="points" />
          </mxGeometry>
        </mxCell>
        <mxCell id="Mzn0NGBpgUfKZWW18m6r-14" value="1:N" style="edgeLabel;html=1;align=center;verticalAlign=middle;resizable=0;points=[];" connectable="0" vertex="1" parent="Mzn0NGBpgUfKZWW18m6r-13">
          <mxGeometry x="-0.1471" y="-2" relative="1" as="geometry">
            <mxPoint as="offset" />
          </mxGeometry>
        </mxCell>
        <mxCell id="Mzn0NGBpgUfKZWW18m6r-15" value="" style="endArrow=none;html=1;rounded=0;entryX=0;entryY=0.5;entryDx=0;entryDy=0;exitX=0.995;exitY=0.322;exitDx=0;exitDy=0;exitPerimeter=0;" edge="1" parent="1" source="Mzn0NGBpgUfKZWW18m6r-10" target="Mzn0NGBpgUfKZWW18m6r-11">
          <mxGeometry width="50" height="50" relative="1" as="geometry">
            <mxPoint x="1510" y="-1660" as="sourcePoint" />
            <mxPoint x="1380" y="-1675" as="targetPoint" />
            <Array as="points" />
          </mxGeometry>
        </mxCell>
        <mxCell id="Mzn0NGBpgUfKZWW18m6r-16" value="1:N" style="edgeLabel;html=1;align=center;verticalAlign=middle;resizable=0;points=[];" connectable="0" vertex="1" parent="Mzn0NGBpgUfKZWW18m6r-15">
          <mxGeometry x="-0.238" y="2" relative="1" as="geometry">
            <mxPoint x="12" y="3" as="offset" />
          </mxGeometry>
        </mxCell>
        <mxCell id="Mzn0NGBpgUfKZWW18m6r-17" value="M:N" style="text;html=1;align=center;verticalAlign=middle;whiteSpace=wrap;rounded=0;" vertex="1" parent="1">
          <mxGeometry x="1590" y="-1630" width="60" height="30" as="geometry" />
        </mxCell>
        <mxCell id="Mzn0NGBpgUfKZWW18m6r-20" value="" style="endArrow=none;html=1;rounded=0;entryX=0;entryY=0.5;entryDx=0;entryDy=0;exitX=0.5;exitY=0;exitDx=0;exitDy=0;" edge="1" parent="1" source="tPzyJt9eVWV6iVS8aPOD-60" target="Mzn0NGBpgUfKZWW18m6r-12">
          <mxGeometry width="50" height="50" relative="1" as="geometry">
            <mxPoint x="1050" y="-1580" as="sourcePoint" />
            <mxPoint x="1100" y="-1630" as="targetPoint" />
            <Array as="points">
              <mxPoint x="1050" y="-1595" />
            </Array>
          </mxGeometry>
        </mxCell>
        <mxCell id="Mzn0NGBpgUfKZWW18m6r-21" value="1:1" style="edgeLabel;html=1;align=center;verticalAlign=middle;resizable=0;points=[];" connectable="0" vertex="1" parent="Mzn0NGBpgUfKZWW18m6r-20">
          <mxGeometry x="0.5849" relative="1" as="geometry">
            <mxPoint as="offset" />
          </mxGeometry>
        </mxCell>
        <mxCell id="Mzn0NGBpgUfKZWW18m6r-22" value="" style="endArrow=none;html=1;rounded=0;exitX=1;exitY=0.5;exitDx=0;exitDy=0;entryX=0.25;entryY=0;entryDx=0;entryDy=0;" edge="1" parent="1" source="Mzn0NGBpgUfKZWW18m6r-11" target="J_CiJStVV-i970G0l3rG-45">
          <mxGeometry width="50" height="50" relative="1" as="geometry">
            <mxPoint x="1750" y="-1600" as="sourcePoint" />
            <mxPoint x="1800" y="-1650" as="targetPoint" />
            <Array as="points">
              <mxPoint x="1790" y="-1595" />
            </Array>
          </mxGeometry>
        </mxCell>
        <mxCell id="Mzn0NGBpgUfKZWW18m6r-23" value="1:1" style="edgeLabel;html=1;align=center;verticalAlign=middle;resizable=0;points=[];" connectable="0" vertex="1" parent="Mzn0NGBpgUfKZWW18m6r-22">
          <mxGeometry x="-0.3787" relative="1" as="geometry">
            <mxPoint as="offset" />
          </mxGeometry>
        </mxCell>
      </root>
    </mxGraphModel>
  </diagram>
  <diagram id="cplueaySELp7VvqfMLhp" name="Modelo de Chen (Simple)">
    <mxGraphModel grid="1" page="1" gridSize="10" guides="1" tooltips="1" connect="1" arrows="1" fold="1" pageScale="1" pageWidth="827" pageHeight="1169" math="0" shadow="0">
      <root>
        <mxCell id="0" />
        <mxCell id="1" parent="0" />
        <mxCell id="6iavBSCYv_kNNVu0q8yQ-1" style="edgeStyle=none;rounded=0;orthogonalLoop=1;jettySize=auto;html=1;exitX=0.5;exitY=0;exitDx=0;exitDy=0;entryX=0.5;entryY=1;entryDx=0;entryDy=0;strokeColor=none;" edge="1" parent="1" source="6iavBSCYv_kNNVu0q8yQ-2" target="6iavBSCYv_kNNVu0q8yQ-13">
          <mxGeometry relative="1" as="geometry" />
        </mxCell>
        <mxCell id="6iavBSCYv_kNNVu0q8yQ-2" value="&lt;b&gt;proyecto&lt;/b&gt;" style="swimlane;fontStyle=0;childLayout=stackLayout;horizontal=1;startSize=30;horizontalStack=0;resizeParent=1;resizeParentMax=0;resizeLast=0;collapsible=1;marginBottom=0;whiteSpace=wrap;html=1;fillColor=#e1d5e7;strokeColor=#9673a6;" vertex="1" parent="1">
          <mxGeometry x="1750" y="-1430" width="160" height="30" as="geometry">
            <mxRectangle x="1540" y="-770" width="60" height="30" as="alternateBounds" />
          </mxGeometry>
        </mxCell>
        <mxCell id="6iavBSCYv_kNNVu0q8yQ-3" value="&lt;div&gt;&lt;div&gt;&lt;div&gt;&lt;font style=&quot;font-size: 16px;&quot;&gt;&lt;br&gt;&lt;/font&gt;&lt;/div&gt;&lt;/div&gt;&lt;/div&gt;" style="text;strokeColor=none;fillColor=none;align=left;verticalAlign=middle;spacingLeft=4;spacingRight=4;overflow=hidden;points=[[0,0.5],[1,0.5]];portConstraint=eastwest;rotatable=0;whiteSpace=wrap;html=1;" vertex="1" parent="6iavBSCYv_kNNVu0q8yQ-2">
          <mxGeometry y="30" width="160" as="geometry" />
        </mxCell>
        <mxCell id="6iavBSCYv_kNNVu0q8yQ-4" value="&lt;b&gt;curso&lt;/b&gt;" style="swimlane;fontStyle=0;childLayout=stackLayout;horizontal=1;startSize=30;horizontalStack=0;resizeParent=1;resizeParentMax=0;resizeLast=0;collapsible=1;marginBottom=0;whiteSpace=wrap;html=1;fillColor=#e1d5e7;strokeColor=#9673a6;" vertex="1" parent="1">
          <mxGeometry x="1350" y="-1315" width="140" height="30" as="geometry" />
        </mxCell>
        <mxCell id="6iavBSCYv_kNNVu0q8yQ-6" value="&lt;b&gt;evaluacion&lt;/b&gt;" style="swimlane;fontStyle=0;childLayout=stackLayout;horizontal=1;startSize=30;horizontalStack=0;resizeParent=1;resizeParentMax=0;resizeLast=0;collapsible=1;marginBottom=0;whiteSpace=wrap;html=1;fillColor=#e1d5e7;strokeColor=#9673a6;" vertex="1" parent="1">
          <mxGeometry x="1760" y="-1950" width="140" height="30" as="geometry" />
        </mxCell>
        <mxCell id="6iavBSCYv_kNNVu0q8yQ-8" value="&lt;b&gt;usuario&lt;/b&gt;" style="swimlane;fontStyle=0;childLayout=stackLayout;horizontal=1;startSize=30;horizontalStack=0;resizeParent=1;resizeParentMax=0;resizeLast=0;collapsible=1;marginBottom=0;whiteSpace=wrap;html=1;fillColor=#e1d5e7;strokeColor=#9673a6;" vertex="1" parent="1">
          <mxGeometry x="1760" y="-910" width="140" height="30" as="geometry" />
        </mxCell>
        <mxCell id="6iavBSCYv_kNNVu0q8yQ-9" value="&lt;div&gt;&lt;br&gt;&lt;/div&gt;" style="text;strokeColor=none;fillColor=none;align=left;verticalAlign=middle;spacingLeft=4;spacingRight=4;overflow=hidden;points=[[0,0.5],[1,0.5]];portConstraint=eastwest;rotatable=0;whiteSpace=wrap;html=1;" vertex="1" parent="6iavBSCYv_kNNVu0q8yQ-8">
          <mxGeometry y="30" width="140" as="geometry" />
        </mxCell>
        <mxCell id="6iavBSCYv_kNNVu0q8yQ-10" value="&lt;b&gt;rol&lt;/b&gt;" style="swimlane;fontStyle=0;childLayout=stackLayout;horizontal=1;startSize=30;horizontalStack=0;resizeParent=1;resizeParentMax=0;resizeLast=0;collapsible=1;marginBottom=0;whiteSpace=wrap;html=1;fillColor=#e1d5e7;strokeColor=#9673a6;" vertex="1" parent="1">
          <mxGeometry x="2010" y="-1120" width="140" height="30" as="geometry" />
        </mxCell>
        <mxCell id="6iavBSCYv_kNNVu0q8yQ-12" value="vincula" style="rhombus;whiteSpace=wrap;html=1;fillColor=#cce5ff;strokeColor=#36393d;" vertex="1" parent="1">
          <mxGeometry x="1574" y="-1340" width="80" height="80" as="geometry" />
        </mxCell>
        <mxCell id="6iavBSCYv_kNNVu0q8yQ-13" value="evalua" style="rhombus;whiteSpace=wrap;html=1;fillColor=light-dark(#D4E1F5,#000000);" vertex="1" parent="1">
          <mxGeometry x="1790" y="-1740" width="80" height="80" as="geometry" />
        </mxCell>
        <mxCell id="6iavBSCYv_kNNVu0q8yQ-14" value="" style="endArrow=none;html=1;rounded=0;exitX=0.5;exitY=0;exitDx=0;exitDy=0;entryX=0.5;entryY=1;entryDx=0;entryDy=0;" edge="1" parent="1" source="6iavBSCYv_kNNVu0q8yQ-13" target="6iavBSCYv_kNNVu0q8yQ-6">
          <mxGeometry width="50" height="50" relative="1" as="geometry">
            <mxPoint x="1850" y="-1480" as="sourcePoint" />
            <mxPoint x="1829.5800000000002" y="-1828.65" as="targetPoint" />
          </mxGeometry>
        </mxCell>
        <mxCell id="6iavBSCYv_kNNVu0q8yQ-15" value="1:1" style="edgeLabel;html=1;align=center;verticalAlign=middle;resizable=0;points=[];" connectable="0" vertex="1" parent="6iavBSCYv_kNNVu0q8yQ-14">
          <mxGeometry x="-0.0019" relative="1" as="geometry">
            <mxPoint as="offset" />
          </mxGeometry>
        </mxCell>
        <mxCell id="6iavBSCYv_kNNVu0q8yQ-16" value="" style="endArrow=none;html=1;rounded=0;entryX=1;entryY=0.5;entryDx=0;entryDy=0;" edge="1" parent="1" target="6iavBSCYv_kNNVu0q8yQ-12">
          <mxGeometry width="50" height="50" relative="1" as="geometry">
            <mxPoint x="1700" y="-1300" as="sourcePoint" />
            <mxPoint x="1840" y="-1560" as="targetPoint" />
          </mxGeometry>
        </mxCell>
        <mxCell id="6iavBSCYv_kNNVu0q8yQ-17" value="1:N" style="edgeLabel;html=1;align=center;verticalAlign=middle;resizable=0;points=[];" connectable="0" vertex="1" parent="6iavBSCYv_kNNVu0q8yQ-16">
          <mxGeometry x="0.1967" y="-1" relative="1" as="geometry">
            <mxPoint x="14" y="1" as="offset" />
          </mxGeometry>
        </mxCell>
        <mxCell id="6iavBSCYv_kNNVu0q8yQ-18" value="" style="endArrow=none;html=1;rounded=0;exitX=0.5;exitY=1;exitDx=0;exitDy=0;entryX=0.5;entryY=0;entryDx=0;entryDy=0;" edge="1" parent="1" source="6iavBSCYv_kNNVu0q8yQ-13" target="6iavBSCYv_kNNVu0q8yQ-2">
          <mxGeometry width="50" height="50" relative="1" as="geometry">
            <mxPoint x="1840" y="-1590" as="sourcePoint" />
            <mxPoint x="1890" y="-1640" as="targetPoint" />
          </mxGeometry>
        </mxCell>
        <mxCell id="6iavBSCYv_kNNVu0q8yQ-19" value="1:N" style="edgeLabel;html=1;align=center;verticalAlign=middle;resizable=0;points=[];" connectable="0" vertex="1" parent="6iavBSCYv_kNNVu0q8yQ-18">
          <mxGeometry x="-0.1467" relative="1" as="geometry">
            <mxPoint as="offset" />
          </mxGeometry>
        </mxCell>
        <mxCell id="6iavBSCYv_kNNVu0q8yQ-20" value="M:N" style="text;html=1;align=center;verticalAlign=middle;whiteSpace=wrap;rounded=0;" vertex="1" parent="1">
          <mxGeometry x="1590" y="-1330" width="60" height="30" as="geometry" />
        </mxCell>
        <mxCell id="6iavBSCYv_kNNVu0q8yQ-21" value="&lt;b&gt;profesor&lt;/b&gt;" style="swimlane;fontStyle=0;childLayout=stackLayout;horizontal=1;startSize=30;horizontalStack=0;resizeParent=1;resizeParentMax=0;resizeLast=0;collapsible=1;marginBottom=0;whiteSpace=wrap;html=1;fillColor=#e1d5e7;strokeColor=#9673a6;" vertex="1" parent="1">
          <mxGeometry x="1350" y="-770" width="140" height="30" as="geometry" />
        </mxCell>
        <mxCell id="6iavBSCYv_kNNVu0q8yQ-23" value="&lt;b&gt;estudiante&lt;/b&gt;" style="swimlane;fontStyle=0;childLayout=stackLayout;horizontal=1;startSize=30;horizontalStack=0;resizeParent=1;resizeParentMax=0;resizeLast=0;collapsible=1;marginBottom=0;whiteSpace=wrap;html=1;fillColor=#e1d5e7;strokeColor=#9673a6;" vertex="1" parent="1">
          <mxGeometry x="2100" y="-715" width="140" height="30" as="geometry" />
        </mxCell>
        <mxCell id="6iavBSCYv_kNNVu0q8yQ-24" value="&lt;div&gt;&lt;br&gt;&lt;/div&gt;" style="text;strokeColor=none;fillColor=none;align=left;verticalAlign=middle;spacingLeft=4;spacingRight=4;overflow=hidden;points=[[0,0.5],[1,0.5]];portConstraint=eastwest;rotatable=0;whiteSpace=wrap;html=1;" vertex="1" parent="6iavBSCYv_kNNVu0q8yQ-23">
          <mxGeometry y="30" width="140" as="geometry" />
        </mxCell>
        <mxCell id="6iavBSCYv_kNNVu0q8yQ-25" value="participa&lt;br&gt;(proyecto, usuario, rol)" style="rhombus;whiteSpace=wrap;html=1;strokeColor=#36393d;fillColor=#cce5ff;" vertex="1" parent="1">
          <mxGeometry x="1775" y="-1150" width="110" height="100" as="geometry" />
        </mxCell>
        <mxCell id="6iavBSCYv_kNNVu0q8yQ-26" value="&lt;b&gt;permiso&lt;/b&gt;" style="swimlane;fontStyle=0;childLayout=stackLayout;horizontal=1;startSize=30;horizontalStack=0;resizeParent=1;resizeParentMax=0;resizeLast=0;collapsible=1;marginBottom=0;whiteSpace=wrap;html=1;fillColor=#e1d5e7;strokeColor=#9673a6;" vertex="1" parent="1">
          <mxGeometry x="2420" y="-1115" width="130" height="30" as="geometry" />
        </mxCell>
        <mxCell id="6iavBSCYv_kNNVu0q8yQ-27" value="&lt;div&gt;&lt;br&gt;&lt;/div&gt;" style="text;strokeColor=none;fillColor=none;align=left;verticalAlign=middle;spacingLeft=4;spacingRight=4;overflow=hidden;points=[[0,0.5],[1,0.5]];portConstraint=eastwest;rotatable=0;whiteSpace=wrap;html=1;" vertex="1" parent="6iavBSCYv_kNNVu0q8yQ-26">
          <mxGeometry y="30" width="130" as="geometry" />
        </mxCell>
        <mxCell id="6iavBSCYv_kNNVu0q8yQ-28" value="posee" style="rhombus;whiteSpace=wrap;html=1;fillColor=light-dark(#D4E1F5,#000000);" vertex="1" parent="1">
          <mxGeometry x="1620" y="-740" width="80" height="80" as="geometry" />
        </mxCell>
        <mxCell id="6iavBSCYv_kNNVu0q8yQ-29" value="posee" style="rhombus;whiteSpace=wrap;html=1;fillColor=light-dark(#D4E1F5,#000000);" vertex="1" parent="1">
          <mxGeometry x="1940" y="-740" width="80" height="80" as="geometry" />
        </mxCell>
        <mxCell id="6iavBSCYv_kNNVu0q8yQ-30" value="" style="endArrow=none;html=1;rounded=0;exitX=0;exitY=0.5;exitDx=0;exitDy=0;entryX=0.6;entryY=1.013;entryDx=0;entryDy=0;entryPerimeter=0;" edge="1" parent="1" source="6iavBSCYv_kNNVu0q8yQ-29" target="6iavBSCYv_kNNVu0q8yQ-9">
          <mxGeometry width="50" height="50" relative="1" as="geometry">
            <mxPoint x="1700" y="-690" as="sourcePoint" />
            <mxPoint x="1840" y="-770" as="targetPoint" />
            <Array as="points">
              <mxPoint x="1844" y="-700" />
            </Array>
          </mxGeometry>
        </mxCell>
        <mxCell id="6iavBSCYv_kNNVu0q8yQ-31" value="1:1" style="edgeLabel;html=1;align=center;verticalAlign=middle;resizable=0;points=[];" connectable="0" vertex="1" parent="6iavBSCYv_kNNVu0q8yQ-30">
          <mxGeometry x="-0.1964" y="2" relative="1" as="geometry">
            <mxPoint x="23" y="-2" as="offset" />
          </mxGeometry>
        </mxCell>
        <mxCell id="6iavBSCYv_kNNVu0q8yQ-32" value="" style="endArrow=none;html=1;rounded=0;exitX=1;exitY=0.5;exitDx=0;exitDy=0;entryX=0;entryY=0.5;entryDx=0;entryDy=0;" edge="1" parent="1" source="6iavBSCYv_kNNVu0q8yQ-29" target="6iavBSCYv_kNNVu0q8yQ-23">
          <mxGeometry width="50" height="50" relative="1" as="geometry">
            <mxPoint x="1720" y="-670" as="sourcePoint" />
            <mxPoint x="2080" y="-720" as="targetPoint" />
          </mxGeometry>
        </mxCell>
        <mxCell id="6iavBSCYv_kNNVu0q8yQ-33" value="1:1" style="edgeLabel;html=1;align=center;verticalAlign=middle;resizable=0;points=[];" connectable="0" vertex="1" parent="6iavBSCYv_kNNVu0q8yQ-32">
          <mxGeometry x="-0.0876" y="-2" relative="1" as="geometry">
            <mxPoint x="-1" as="offset" />
          </mxGeometry>
        </mxCell>
        <mxCell id="6iavBSCYv_kNNVu0q8yQ-34" value="" style="endArrow=none;html=1;rounded=0;entryX=0;entryY=0.5;entryDx=0;entryDy=0;" edge="1" parent="1" target="6iavBSCYv_kNNVu0q8yQ-28">
          <mxGeometry width="50" height="50" relative="1" as="geometry">
            <mxPoint x="1420" y="-700" as="sourcePoint" />
            <mxPoint x="1610" y="-700" as="targetPoint" />
          </mxGeometry>
        </mxCell>
        <mxCell id="6iavBSCYv_kNNVu0q8yQ-35" value="1:1" style="edgeLabel;html=1;align=center;verticalAlign=middle;resizable=0;points=[];" connectable="0" vertex="1" parent="6iavBSCYv_kNNVu0q8yQ-34">
          <mxGeometry x="0.0591" y="-2" relative="1" as="geometry">
            <mxPoint as="offset" />
          </mxGeometry>
        </mxCell>
        <mxCell id="6iavBSCYv_kNNVu0q8yQ-36" value="" style="endArrow=none;html=1;rounded=0;entryX=0.5;entryY=0;entryDx=0;entryDy=0;exitX=0.5;exitY=1;exitDx=0;exitDy=0;" edge="1" parent="1" source="6iavBSCYv_kNNVu0q8yQ-25" target="6iavBSCYv_kNNVu0q8yQ-8">
          <mxGeometry width="50" height="50" relative="1" as="geometry">
            <mxPoint x="1470" y="-690" as="sourcePoint" />
            <mxPoint x="1620" y="-690" as="targetPoint" />
          </mxGeometry>
        </mxCell>
        <mxCell id="6iavBSCYv_kNNVu0q8yQ-37" value="1:N" style="edgeLabel;html=1;align=center;verticalAlign=middle;resizable=0;points=[];" connectable="0" vertex="1" parent="6iavBSCYv_kNNVu0q8yQ-36">
          <mxGeometry x="0.0734" y="2" relative="1" as="geometry">
            <mxPoint as="offset" />
          </mxGeometry>
        </mxCell>
        <mxCell id="6iavBSCYv_kNNVu0q8yQ-38" value="" style="endArrow=none;html=1;rounded=0;exitX=0.5;exitY=0;exitDx=0;exitDy=0;entryX=0.5;entryY=1.005;entryDx=0;entryDy=0;entryPerimeter=0;" edge="1" parent="1" source="6iavBSCYv_kNNVu0q8yQ-25" target="6iavBSCYv_kNNVu0q8yQ-3">
          <mxGeometry width="50" height="50" relative="1" as="geometry">
            <mxPoint x="1920" y="-1160" as="sourcePoint" />
            <mxPoint x="1970" y="-1210" as="targetPoint" />
          </mxGeometry>
        </mxCell>
        <mxCell id="6iavBSCYv_kNNVu0q8yQ-39" value="1:N" style="edgeLabel;html=1;align=center;verticalAlign=middle;resizable=0;points=[];" connectable="0" vertex="1" parent="6iavBSCYv_kNNVu0q8yQ-38">
          <mxGeometry x="-0.0969" y="1" relative="1" as="geometry">
            <mxPoint as="offset" />
          </mxGeometry>
        </mxCell>
        <mxCell id="6iavBSCYv_kNNVu0q8yQ-40" value="&lt;b&gt;programa_academico&lt;/b&gt;" style="swimlane;fontStyle=0;childLayout=stackLayout;horizontal=1;startSize=30;horizontalStack=0;resizeParent=1;resizeParentMax=0;resizeLast=0;collapsible=1;marginBottom=0;whiteSpace=wrap;html=1;fillColor=#e1d5e7;strokeColor=#9673a6;" vertex="1" parent="1">
          <mxGeometry x="980" y="-1020" width="140" height="30" as="geometry" />
        </mxCell>
        <mxCell id="6iavBSCYv_kNNVu0q8yQ-42" value="" style="endArrow=none;html=1;rounded=0;exitX=1;exitY=0.5;exitDx=0;exitDy=0;entryX=0.417;entryY=1.018;entryDx=0;entryDy=0;entryPerimeter=0;" edge="1" parent="1" source="6iavBSCYv_kNNVu0q8yQ-28" target="6iavBSCYv_kNNVu0q8yQ-9">
          <mxGeometry width="50" height="50" relative="1" as="geometry">
            <mxPoint x="1490" y="-550" as="sourcePoint" />
            <mxPoint x="1810" y="-700" as="targetPoint" />
            <Array as="points">
              <mxPoint x="1818" y="-700" />
            </Array>
          </mxGeometry>
        </mxCell>
        <mxCell id="6iavBSCYv_kNNVu0q8yQ-43" value="1:1" style="edgeLabel;html=1;align=center;verticalAlign=middle;resizable=0;points=[];" connectable="0" vertex="1" parent="6iavBSCYv_kNNVu0q8yQ-42">
          <mxGeometry x="-0.3256" relative="1" as="geometry">
            <mxPoint x="-1" as="offset" />
          </mxGeometry>
        </mxCell>
        <mxCell id="6iavBSCYv_kNNVu0q8yQ-44" value="M:N" style="text;html=1;align=center;verticalAlign=middle;whiteSpace=wrap;rounded=0;" vertex="1" parent="1">
          <mxGeometry x="1800" y="-1145" width="60" height="30" as="geometry" />
        </mxCell>
        <mxCell id="6iavBSCYv_kNNVu0q8yQ-45" value="&lt;b&gt;tipo_proyecto&lt;/b&gt;" style="swimlane;fontStyle=0;childLayout=stackLayout;horizontal=1;startSize=30;horizontalStack=0;resizeParent=1;resizeParentMax=0;resizeLast=0;collapsible=1;marginBottom=0;whiteSpace=wrap;html=1;fillColor=#e1d5e7;strokeColor=#9673a6;" vertex="1" parent="1">
          <mxGeometry x="2220" y="-1535" width="140" height="30" as="geometry" />
        </mxCell>
        <mxCell id="6iavBSCYv_kNNVu0q8yQ-47" value="define" style="rhombus;whiteSpace=wrap;html=1;fillColor=light-dark(#D4E1F5,#000000);" vertex="1" parent="1">
          <mxGeometry x="2040" y="-1560" width="80" height="80" as="geometry" />
        </mxCell>
        <mxCell id="6iavBSCYv_kNNVu0q8yQ-48" value="" style="endArrow=none;html=1;rounded=0;exitX=0;exitY=0.5;exitDx=0;exitDy=0;" edge="1" parent="1" source="6iavBSCYv_kNNVu0q8yQ-47">
          <mxGeometry width="50" height="50" relative="1" as="geometry">
            <mxPoint x="2020" y="-1550" as="sourcePoint" />
            <mxPoint x="1880" y="-1520" as="targetPoint" />
          </mxGeometry>
        </mxCell>
        <mxCell id="6iavBSCYv_kNNVu0q8yQ-49" value="1:N" style="edgeLabel;html=1;align=center;verticalAlign=middle;resizable=0;points=[];" connectable="0" vertex="1" parent="6iavBSCYv_kNNVu0q8yQ-48">
          <mxGeometry x="0.1967" y="-1" relative="1" as="geometry">
            <mxPoint as="offset" />
          </mxGeometry>
        </mxCell>
        <mxCell id="6iavBSCYv_kNNVu0q8yQ-50" value="&lt;b&gt;microcurriculo&lt;/b&gt;" style="swimlane;fontStyle=0;childLayout=stackLayout;horizontal=1;startSize=30;horizontalStack=0;resizeParent=1;resizeParentMax=0;resizeLast=0;collapsible=1;marginBottom=0;whiteSpace=wrap;html=1;fillColor=#e1d5e7;strokeColor=#9673a6;" vertex="1" parent="1">
          <mxGeometry x="980" y="-1420" width="140" height="30" as="geometry" />
        </mxCell>
        <mxCell id="6iavBSCYv_kNNVu0q8yQ-52" value="" style="endArrow=none;html=1;rounded=0;exitX=0;exitY=0.5;exitDx=0;exitDy=0;entryX=1;entryY=0.5;entryDx=0;entryDy=0;" edge="1" parent="1" source="6iavBSCYv_kNNVu0q8yQ-45" target="6iavBSCYv_kNNVu0q8yQ-47">
          <mxGeometry width="50" height="50" relative="1" as="geometry">
            <mxPoint x="2220" y="-1540.0000000000002" as="sourcePoint" />
            <mxPoint x="1929" y="-1530" as="targetPoint" />
          </mxGeometry>
        </mxCell>
        <mxCell id="6iavBSCYv_kNNVu0q8yQ-53" value="1:1" style="edgeLabel;html=1;align=center;verticalAlign=middle;resizable=0;points=[];" connectable="0" vertex="1" parent="6iavBSCYv_kNNVu0q8yQ-52">
          <mxGeometry x="0.1261" y="1" relative="1" as="geometry">
            <mxPoint x="1" as="offset" />
          </mxGeometry>
        </mxCell>
        <mxCell id="6iavBSCYv_kNNVu0q8yQ-54" value="define" style="rhombus;whiteSpace=wrap;html=1;fillColor=light-dark(#D4E1F5,#000000);" vertex="1" parent="1">
          <mxGeometry x="1190" y="-1340" width="80" height="80" as="geometry" />
        </mxCell>
        <mxCell id="6iavBSCYv_kNNVu0q8yQ-55" value="dispone" style="rhombus;whiteSpace=wrap;html=1;fillColor=light-dark(#D4E1F5,#000000);" vertex="1" parent="1">
          <mxGeometry x="1010" y="-1170" width="80" height="80" as="geometry" />
        </mxCell>
        <mxCell id="6iavBSCYv_kNNVu0q8yQ-56" value="" style="endArrow=none;html=1;rounded=0;entryX=0;entryY=0.5;entryDx=0;entryDy=0;" edge="1" parent="1" target="6iavBSCYv_kNNVu0q8yQ-54">
          <mxGeometry width="50" height="50" relative="1" as="geometry">
            <mxPoint x="1150" y="-1300" as="sourcePoint" />
            <mxPoint x="1060" y="-1722" as="targetPoint" />
          </mxGeometry>
        </mxCell>
        <mxCell id="6iavBSCYv_kNNVu0q8yQ-57" value="1:1" style="edgeLabel;html=1;align=center;verticalAlign=middle;resizable=0;points=[];" connectable="0" vertex="1" parent="6iavBSCYv_kNNVu0q8yQ-56">
          <mxGeometry x="0.0614" y="-1" relative="1" as="geometry">
            <mxPoint as="offset" />
          </mxGeometry>
        </mxCell>
        <mxCell id="6iavBSCYv_kNNVu0q8yQ-58" value="" style="endArrow=none;html=1;rounded=0;exitX=1;exitY=0.5;exitDx=0;exitDy=0;entryX=0;entryY=0.5;entryDx=0;entryDy=0;" edge="1" parent="1" source="6iavBSCYv_kNNVu0q8yQ-54" target="6iavBSCYv_kNNVu0q8yQ-4">
          <mxGeometry width="50" height="50" relative="1" as="geometry">
            <mxPoint x="1070" y="-1630" as="sourcePoint" />
            <mxPoint x="1350.1399999999999" y="-1259.6399999999999" as="targetPoint" />
          </mxGeometry>
        </mxCell>
        <mxCell id="6iavBSCYv_kNNVu0q8yQ-59" value="1:N" style="edgeLabel;html=1;align=center;verticalAlign=middle;resizable=0;points=[];" connectable="0" vertex="1" parent="6iavBSCYv_kNNVu0q8yQ-58">
          <mxGeometry x="-0.1904" y="-2" relative="1" as="geometry">
            <mxPoint as="offset" />
          </mxGeometry>
        </mxCell>
        <mxCell id="6iavBSCYv_kNNVu0q8yQ-60" value="" style="endArrow=none;html=1;rounded=0;entryX=0;entryY=0.5;entryDx=0;entryDy=0;" edge="1" parent="1" target="6iavBSCYv_kNNVu0q8yQ-12">
          <mxGeometry width="50" height="50" relative="1" as="geometry">
            <mxPoint x="1490" y="-1300" as="sourcePoint" />
            <mxPoint x="1100" y="-1682" as="targetPoint" />
          </mxGeometry>
        </mxCell>
        <mxCell id="6iavBSCYv_kNNVu0q8yQ-61" value="1:N" style="edgeLabel;html=1;align=center;verticalAlign=middle;resizable=0;points=[];" connectable="0" vertex="1" parent="6iavBSCYv_kNNVu0q8yQ-60">
          <mxGeometry x="-0.0941" y="-2" relative="1" as="geometry">
            <mxPoint x="10" y="-2" as="offset" />
          </mxGeometry>
        </mxCell>
        <mxCell id="6iavBSCYv_kNNVu0q8yQ-62" value="&lt;b&gt;era&lt;/b&gt;" style="swimlane;fontStyle=0;childLayout=stackLayout;horizontal=1;startSize=30;horizontalStack=0;resizeParent=1;resizeParentMax=0;resizeLast=0;collapsible=1;marginBottom=0;whiteSpace=wrap;html=1;fillColor=#e1d5e7;strokeColor=#9673a6;" vertex="1" parent="1">
          <mxGeometry x="1350" y="-1515" width="140" height="25" as="geometry" />
        </mxCell>
        <mxCell id="6iavBSCYv_kNNVu0q8yQ-64" value="asocia" style="rhombus;whiteSpace=wrap;html=1;fillColor=#cce5ff;strokeColor=#36393d;" vertex="1" parent="1">
          <mxGeometry x="1580" y="-1540" width="80" height="80" as="geometry" />
        </mxCell>
        <mxCell id="6iavBSCYv_kNNVu0q8yQ-65" value="emparienta" style="rhombus;whiteSpace=wrap;html=1;fillColor=light-dark(#D4E1F5,#000000);" vertex="1" parent="1">
          <mxGeometry x="1190" y="-1540" width="80" height="80" as="geometry" />
        </mxCell>
        <mxCell id="6iavBSCYv_kNNVu0q8yQ-66" value="" style="endArrow=none;html=1;rounded=0;entryX=0;entryY=0.5;entryDx=0;entryDy=0;" edge="1" parent="1" target="6iavBSCYv_kNNVu0q8yQ-65">
          <mxGeometry width="50" height="50" relative="1" as="geometry">
            <mxPoint x="1050" y="-1500" as="sourcePoint" />
            <mxPoint x="1230" y="-1560" as="targetPoint" />
            <Array as="points" />
          </mxGeometry>
        </mxCell>
        <mxCell id="6iavBSCYv_kNNVu0q8yQ-67" value="1:1" style="edgeLabel;html=1;align=center;verticalAlign=middle;resizable=0;points=[];" connectable="0" vertex="1" parent="6iavBSCYv_kNNVu0q8yQ-66">
          <mxGeometry x="-0.1217" y="2" relative="1" as="geometry">
            <mxPoint y="2" as="offset" />
          </mxGeometry>
        </mxCell>
        <mxCell id="6iavBSCYv_kNNVu0q8yQ-68" value="" style="endArrow=none;html=1;rounded=0;exitX=1;exitY=0.5;exitDx=0;exitDy=0;entryX=-0.002;entryY=0.322;entryDx=0;entryDy=0;entryPerimeter=0;" edge="1" parent="1" source="6iavBSCYv_kNNVu0q8yQ-65">
          <mxGeometry width="50" height="50" relative="1" as="geometry">
            <mxPoint x="1260" y="-1720" as="sourcePoint" />
            <mxPoint x="1349.7199999999998" y="-1499.24" as="targetPoint" />
            <Array as="points" />
          </mxGeometry>
        </mxCell>
        <mxCell id="6iavBSCYv_kNNVu0q8yQ-69" value="1:N" style="edgeLabel;html=1;align=center;verticalAlign=middle;resizable=0;points=[];" connectable="0" vertex="1" parent="6iavBSCYv_kNNVu0q8yQ-68">
          <mxGeometry x="-0.1471" y="-2" relative="1" as="geometry">
            <mxPoint as="offset" />
          </mxGeometry>
        </mxCell>
        <mxCell id="6iavBSCYv_kNNVu0q8yQ-70" value="" style="endArrow=none;html=1;rounded=0;entryX=0;entryY=0.5;entryDx=0;entryDy=0;exitX=0.995;exitY=0.322;exitDx=0;exitDy=0;exitPerimeter=0;" edge="1" parent="1" target="6iavBSCYv_kNNVu0q8yQ-64">
          <mxGeometry width="50" height="50" relative="1" as="geometry">
            <mxPoint x="1489.3000000000002" y="-1499.24" as="sourcePoint" />
            <mxPoint x="1370" y="-1685" as="targetPoint" />
            <Array as="points" />
          </mxGeometry>
        </mxCell>
        <mxCell id="6iavBSCYv_kNNVu0q8yQ-71" value="1:N" style="edgeLabel;html=1;align=center;verticalAlign=middle;resizable=0;points=[];" connectable="0" vertex="1" parent="6iavBSCYv_kNNVu0q8yQ-70">
          <mxGeometry x="-0.238" y="2" relative="1" as="geometry">
            <mxPoint x="12" y="3" as="offset" />
          </mxGeometry>
        </mxCell>
        <mxCell id="6iavBSCYv_kNNVu0q8yQ-72" value="" style="endArrow=none;html=1;rounded=0;exitX=1;exitY=0.5;exitDx=0;exitDy=0;" edge="1" parent="1" source="6iavBSCYv_kNNVu0q8yQ-64">
          <mxGeometry width="50" height="50" relative="1" as="geometry">
            <mxPoint x="1260" y="-1630" as="sourcePoint" />
            <mxPoint x="1700" y="-1500" as="targetPoint" />
            <Array as="points" />
          </mxGeometry>
        </mxCell>
        <mxCell id="6iavBSCYv_kNNVu0q8yQ-73" value="1:N" style="edgeLabel;html=1;align=center;verticalAlign=middle;resizable=0;points=[];" connectable="0" vertex="1" parent="6iavBSCYv_kNNVu0q8yQ-72">
          <mxGeometry x="0.2427" y="-1" relative="1" as="geometry">
            <mxPoint x="-9" y="-1" as="offset" />
          </mxGeometry>
        </mxCell>
        <mxCell id="6iavBSCYv_kNNVu0q8yQ-74" value="" style="endArrow=none;html=1;rounded=0;entryX=0;entryY=0.5;entryDx=0;entryDy=0;exitX=1;exitY=0.593;exitDx=0;exitDy=0;exitPerimeter=0;" edge="1" parent="1" target="6iavBSCYv_kNNVu0q8yQ-76">
          <mxGeometry width="50" height="50" relative="1" as="geometry">
            <mxPoint x="2150" y="-1100.6999999999998" as="sourcePoint" />
            <mxPoint x="2320" y="-1145" as="targetPoint" />
          </mxGeometry>
        </mxCell>
        <mxCell id="6iavBSCYv_kNNVu0q8yQ-75" value="1:1" style="edgeLabel;html=1;align=center;verticalAlign=middle;resizable=0;points=[];" connectable="0" vertex="1" parent="6iavBSCYv_kNNVu0q8yQ-74">
          <mxGeometry x="0.0656" y="1" relative="1" as="geometry">
            <mxPoint as="offset" />
          </mxGeometry>
        </mxCell>
        <mxCell id="6iavBSCYv_kNNVu0q8yQ-76" value="restringe" style="rhombus;whiteSpace=wrap;html=1;fillColor=light-dark(#D4E1F5,#000000);" vertex="1" parent="1">
          <mxGeometry x="2240" y="-1140" width="80" height="80" as="geometry" />
        </mxCell>
        <mxCell id="6iavBSCYv_kNNVu0q8yQ-77" value="" style="endArrow=none;html=1;rounded=0;exitX=1;exitY=0.5;exitDx=0;exitDy=0;entryX=0;entryY=0.5;entryDx=0;entryDy=0;" edge="1" parent="1" source="6iavBSCYv_kNNVu0q8yQ-76" target="6iavBSCYv_kNNVu0q8yQ-26">
          <mxGeometry width="50" height="50" relative="1" as="geometry">
            <mxPoint x="2520" y="-1095" as="sourcePoint" />
            <mxPoint x="2409" y="-1105" as="targetPoint" />
          </mxGeometry>
        </mxCell>
        <mxCell id="6iavBSCYv_kNNVu0q8yQ-78" value="1:1" style="edgeLabel;html=1;align=center;verticalAlign=middle;resizable=0;points=[];" connectable="0" vertex="1" parent="6iavBSCYv_kNNVu0q8yQ-77">
          <mxGeometry x="-0.0021" relative="1" as="geometry">
            <mxPoint as="offset" />
          </mxGeometry>
        </mxCell>
        <mxCell id="6iavBSCYv_kNNVu0q8yQ-79" value="" style="endArrow=none;html=1;rounded=0;exitX=0.5;exitY=0;exitDx=0;exitDy=0;entryX=0.5;entryY=1;entryDx=0;entryDy=0;" edge="1" parent="1" source="6iavBSCYv_kNNVu0q8yQ-55" target="6iavBSCYv_kNNVu0q8yQ-50">
          <mxGeometry width="50" height="50" relative="1" as="geometry">
            <mxPoint x="1020" y="-1180" as="sourcePoint" />
            <mxPoint x="1050" y="-1228.2599999999998" as="targetPoint" />
          </mxGeometry>
        </mxCell>
        <mxCell id="6iavBSCYv_kNNVu0q8yQ-80" value="1:N" style="edgeLabel;html=1;align=center;verticalAlign=middle;resizable=0;points=[];" connectable="0" vertex="1" parent="6iavBSCYv_kNNVu0q8yQ-79">
          <mxGeometry x="0.248" y="-2" relative="1" as="geometry">
            <mxPoint as="offset" />
          </mxGeometry>
        </mxCell>
        <mxCell id="6iavBSCYv_kNNVu0q8yQ-81" value="" style="endArrow=none;html=1;rounded=0;entryX=0.5;entryY=1;entryDx=0;entryDy=0;exitX=0.5;exitY=0;exitDx=0;exitDy=0;" edge="1" parent="1" source="6iavBSCYv_kNNVu0q8yQ-40" target="6iavBSCYv_kNNVu0q8yQ-55">
          <mxGeometry width="50" height="50" relative="1" as="geometry">
            <mxPoint x="1020" y="-1030" as="sourcePoint" />
            <mxPoint x="1070" y="-1080" as="targetPoint" />
          </mxGeometry>
        </mxCell>
        <mxCell id="6iavBSCYv_kNNVu0q8yQ-82" value="1:1" style="edgeLabel;html=1;align=center;verticalAlign=middle;resizable=0;points=[];" connectable="0" vertex="1" parent="6iavBSCYv_kNNVu0q8yQ-81">
          <mxGeometry x="-0.079" y="-2" relative="1" as="geometry">
            <mxPoint x="-2" y="-8" as="offset" />
          </mxGeometry>
        </mxCell>
        <mxCell id="6iavBSCYv_kNNVu0q8yQ-83" value="" style="endArrow=none;html=1;rounded=0;exitX=1;exitY=0.5;exitDx=0;exitDy=0;entryX=0;entryY=0.596;entryDx=0;entryDy=0;entryPerimeter=0;" edge="1" parent="1" source="6iavBSCYv_kNNVu0q8yQ-25">
          <mxGeometry width="50" height="50" relative="1" as="geometry">
            <mxPoint x="1960" y="-1080" as="sourcePoint" />
            <mxPoint x="2010" y="-1100.3999999999999" as="targetPoint" />
          </mxGeometry>
        </mxCell>
        <mxCell id="6iavBSCYv_kNNVu0q8yQ-84" value="1:N" style="edgeLabel;html=1;align=center;verticalAlign=middle;resizable=0;points=[];" connectable="0" vertex="1" parent="6iavBSCYv_kNNVu0q8yQ-83">
          <mxGeometry x="-0.0143" y="1" relative="1" as="geometry">
            <mxPoint as="offset" />
          </mxGeometry>
        </mxCell>
        <mxCell id="6iavBSCYv_kNNVu0q8yQ-85" value="M:N" style="text;html=1;align=center;verticalAlign=middle;whiteSpace=wrap;rounded=0;" vertex="1" parent="1">
          <mxGeometry x="1590" y="-1530" width="60" height="30" as="geometry" />
        </mxCell>
        <mxCell id="6iavBSCYv_kNNVu0q8yQ-86" value="estudia" style="rhombus;whiteSpace=wrap;html=1;fillColor=light-dark(#D4E1F5,var(--ge-dark-color, #121212));" vertex="1" parent="1">
          <mxGeometry x="1010" y="-580" width="80" height="80" as="geometry" />
        </mxCell>
        <mxCell id="6iavBSCYv_kNNVu0q8yQ-87" value="" style="endArrow=none;html=1;rounded=0;exitX=1;exitY=0.5;exitDx=0;exitDy=0;entryX=0.5;entryY=1.015;entryDx=0;entryDy=0;entryPerimeter=0;" edge="1" parent="1" source="6iavBSCYv_kNNVu0q8yQ-86" target="6iavBSCYv_kNNVu0q8yQ-24">
          <mxGeometry width="50" height="50" relative="1" as="geometry">
            <mxPoint x="1210" y="-440" as="sourcePoint" />
            <mxPoint x="1260" y="-490" as="targetPoint" />
            <Array as="points">
              <mxPoint x="2170" y="-540" />
            </Array>
          </mxGeometry>
        </mxCell>
        <mxCell id="6iavBSCYv_kNNVu0q8yQ-88" value="1:N" style="edgeLabel;html=1;align=center;verticalAlign=middle;resizable=0;points=[];" connectable="0" vertex="1" parent="6iavBSCYv_kNNVu0q8yQ-87">
          <mxGeometry x="-0.6933" y="-1" relative="1" as="geometry">
            <mxPoint x="874" y="-1" as="offset" />
          </mxGeometry>
        </mxCell>
        <mxCell id="6iavBSCYv_kNNVu0q8yQ-89" value="" style="endArrow=none;html=1;rounded=0;entryX=0.5;entryY=1;entryDx=0;entryDy=0;exitX=0.5;exitY=0;exitDx=0;exitDy=0;" edge="1" parent="1" source="6iavBSCYv_kNNVu0q8yQ-86" target="6iavBSCYv_kNNVu0q8yQ-40">
          <mxGeometry width="50" height="50" relative="1" as="geometry">
            <mxPoint x="1020" y="-640" as="sourcePoint" />
            <mxPoint x="1049.44" y="-949.44" as="targetPoint" />
          </mxGeometry>
        </mxCell>
        <mxCell id="6iavBSCYv_kNNVu0q8yQ-90" value="1:1" style="edgeLabel;html=1;align=center;verticalAlign=middle;resizable=0;points=[];" connectable="0" vertex="1" parent="6iavBSCYv_kNNVu0q8yQ-89">
          <mxGeometry x="0.7968" y="-1" relative="1" as="geometry">
            <mxPoint x="-1" y="139" as="offset" />
          </mxGeometry>
        </mxCell>
        <mxCell id="6iavBSCYv_kNNVu0q8yQ-91" value="instruye" style="rhombus;whiteSpace=wrap;html=1;fillColor=light-dark(#D4E1F5,#000000);" vertex="1" parent="1">
          <mxGeometry x="1380" y="-1140" width="80" height="80" as="geometry" />
        </mxCell>
        <mxCell id="6iavBSCYv_kNNVu0q8yQ-92" value="" style="endArrow=none;html=1;rounded=0;exitX=0.5;exitY=0;exitDx=0;exitDy=0;entryX=0.5;entryY=1;entryDx=0;entryDy=0;" edge="1" parent="1" source="6iavBSCYv_kNNVu0q8yQ-21" target="6iavBSCYv_kNNVu0q8yQ-91">
          <mxGeometry width="50" height="50" relative="1" as="geometry">
            <mxPoint x="1410" y="-860" as="sourcePoint" />
            <mxPoint x="1460" y="-910" as="targetPoint" />
          </mxGeometry>
        </mxCell>
        <mxCell id="6iavBSCYv_kNNVu0q8yQ-93" value="1:1" style="edgeLabel;html=1;align=center;verticalAlign=middle;resizable=0;points=[];" connectable="0" vertex="1" parent="6iavBSCYv_kNNVu0q8yQ-92">
          <mxGeometry x="-0.0557" y="-1" relative="1" as="geometry">
            <mxPoint as="offset" />
          </mxGeometry>
        </mxCell>
        <mxCell id="6iavBSCYv_kNNVu0q8yQ-94" value="" style="endArrow=none;html=1;rounded=0;exitX=0.5;exitY=0;exitDx=0;exitDy=0;" edge="1" parent="1" source="6iavBSCYv_kNNVu0q8yQ-91" target="6iavBSCYv_kNNVu0q8yQ-4">
          <mxGeometry width="50" height="50" relative="1" as="geometry">
            <mxPoint x="1390" y="-1210" as="sourcePoint" />
            <mxPoint x="1420.1399999999999" y="-1169.7600000000002" as="targetPoint" />
          </mxGeometry>
        </mxCell>
        <mxCell id="6iavBSCYv_kNNVu0q8yQ-95" value="1:N" style="edgeLabel;html=1;align=center;verticalAlign=middle;resizable=0;points=[];" connectable="0" vertex="1" parent="6iavBSCYv_kNNVu0q8yQ-94">
          <mxGeometry x="0.0845" y="-1" relative="1" as="geometry">
            <mxPoint as="offset" />
          </mxGeometry>
        </mxCell>
        <mxCell id="6iavBSCYv_kNNVu0q8yQ-96" value="&lt;div&gt;posee&lt;/div&gt;" style="rhombus;whiteSpace=wrap;html=1;fillColor=#cce5ff;strokeColor=#36393d;" vertex="1" parent="1">
          <mxGeometry x="2040" y="-1455" width="80" height="80" as="geometry" />
        </mxCell>
        <mxCell id="6iavBSCYv_kNNVu0q8yQ-97" value="entregable" style="swimlane;fontStyle=1;childLayout=stackLayout;horizontal=1;startSize=30;horizontalStack=0;resizeParent=1;resizeParentMax=0;resizeLast=0;collapsible=1;marginBottom=0;whiteSpace=wrap;html=1;fillColor=#e1d5e7;strokeColor=#9673a6;" vertex="1" parent="1">
          <mxGeometry x="2220" y="-1430" width="140" height="30" as="geometry" />
        </mxCell>
        <mxCell id="6iavBSCYv_kNNVu0q8yQ-99" value="" style="endArrow=none;html=1;rounded=0;entryX=0;entryY=0.5;entryDx=0;entryDy=0;" edge="1" parent="1" target="6iavBSCYv_kNNVu0q8yQ-96">
          <mxGeometry width="50" height="50" relative="1" as="geometry">
            <mxPoint x="1950" y="-1415" as="sourcePoint" />
            <mxPoint x="2000" y="-1380" as="targetPoint" />
          </mxGeometry>
        </mxCell>
        <mxCell id="6iavBSCYv_kNNVu0q8yQ-100" value="1:N" style="edgeLabel;html=1;align=center;verticalAlign=middle;resizable=0;points=[];" connectable="0" vertex="1" parent="6iavBSCYv_kNNVu0q8yQ-99">
          <mxGeometry x="-0.1321" relative="1" as="geometry">
            <mxPoint as="offset" />
          </mxGeometry>
        </mxCell>
        <mxCell id="6iavBSCYv_kNNVu0q8yQ-101" value="" style="endArrow=none;html=1;rounded=0;exitX=1;exitY=0.5;exitDx=0;exitDy=0;entryX=0;entryY=0.5;entryDx=0;entryDy=0;" edge="1" parent="1" source="6iavBSCYv_kNNVu0q8yQ-96" target="6iavBSCYv_kNNVu0q8yQ-97">
          <mxGeometry width="50" height="50" relative="1" as="geometry">
            <mxPoint x="2200" y="-1410" as="sourcePoint" />
            <mxPoint x="2220.4199999999996" y="-1430.3200000000002" as="targetPoint" />
          </mxGeometry>
        </mxCell>
        <mxCell id="6iavBSCYv_kNNVu0q8yQ-102" value="1:N" style="edgeLabel;html=1;align=center;verticalAlign=middle;resizable=0;points=[];" connectable="0" vertex="1" parent="6iavBSCYv_kNNVu0q8yQ-101">
          <mxGeometry x="0.0717" y="-4" relative="1" as="geometry">
            <mxPoint y="-4" as="offset" />
          </mxGeometry>
        </mxCell>
        <mxCell id="6iavBSCYv_kNNVu0q8yQ-103" value="M:N" style="text;html=1;align=center;verticalAlign=middle;whiteSpace=wrap;rounded=0;" vertex="1" parent="1">
          <mxGeometry x="2050" y="-1445" width="60" height="30" as="geometry" />
        </mxCell>
        <mxCell id="6iavBSCYv_kNNVu0q8yQ-104" value="linea_investigacion" style="swimlane;fontStyle=1;childLayout=stackLayout;horizontal=1;startSize=30;horizontalStack=0;resizeParent=1;resizeParentMax=0;resizeLast=0;collapsible=1;marginBottom=0;whiteSpace=wrap;html=1;fillColor=#e1d5e7;strokeColor=#9673a6;" vertex="1" parent="1">
          <mxGeometry x="2220" y="-1315" width="140" height="30" as="geometry" />
        </mxCell>
        <mxCell id="6iavBSCYv_kNNVu0q8yQ-106" value="enfoca" style="rhombus;whiteSpace=wrap;html=1;fillColor=#cce5ff;strokeColor=#36393d;" vertex="1" parent="1">
          <mxGeometry x="2040" y="-1340" width="80" height="80" as="geometry" />
        </mxCell>
        <mxCell id="6iavBSCYv_kNNVu0q8yQ-107" value="" style="endArrow=none;html=1;rounded=0;entryX=0;entryY=0.5;entryDx=0;entryDy=0;" edge="1" parent="1" target="6iavBSCYv_kNNVu0q8yQ-106">
          <mxGeometry width="50" height="50" relative="1" as="geometry">
            <mxPoint x="1880" y="-1300" as="sourcePoint" />
            <mxPoint x="2030" y="-1320" as="targetPoint" />
          </mxGeometry>
        </mxCell>
        <mxCell id="6iavBSCYv_kNNVu0q8yQ-108" value="1:N" style="edgeLabel;html=1;align=center;verticalAlign=middle;resizable=0;points=[];" connectable="0" vertex="1" parent="6iavBSCYv_kNNVu0q8yQ-107">
          <mxGeometry x="-0.0986" y="-1" relative="1" as="geometry">
            <mxPoint as="offset" />
          </mxGeometry>
        </mxCell>
        <mxCell id="6iavBSCYv_kNNVu0q8yQ-109" value="" style="endArrow=none;html=1;rounded=0;exitX=1;exitY=0.5;exitDx=0;exitDy=0;entryX=0;entryY=0.5;entryDx=0;entryDy=0;" edge="1" parent="1" source="6iavBSCYv_kNNVu0q8yQ-106" target="6iavBSCYv_kNNVu0q8yQ-104">
          <mxGeometry width="50" height="50" relative="1" as="geometry">
            <mxPoint x="2150" y="-1270" as="sourcePoint" />
            <mxPoint x="2200" y="-1300" as="targetPoint" />
          </mxGeometry>
        </mxCell>
        <mxCell id="6iavBSCYv_kNNVu0q8yQ-110" value="1:N" style="edgeLabel;html=1;align=center;verticalAlign=middle;resizable=0;points=[];" connectable="0" vertex="1" parent="6iavBSCYv_kNNVu0q8yQ-109">
          <mxGeometry x="-0.1086" relative="1" as="geometry">
            <mxPoint as="offset" />
          </mxGeometry>
        </mxCell>
        <mxCell id="6iavBSCYv_kNNVu0q8yQ-111" value="M:N" style="text;html=1;align=center;verticalAlign=middle;whiteSpace=wrap;rounded=0;" vertex="1" parent="1">
          <mxGeometry x="2050" y="-1330" width="60" height="30" as="geometry" />
        </mxCell>
        <mxCell id="6iavBSCYv_kNNVu0q8yQ-112" style="edgeStyle=none;rounded=0;orthogonalLoop=1;jettySize=auto;html=1;exitX=0.75;exitY=1;exitDx=0;exitDy=0;" edge="1" parent="1" source="6iavBSCYv_kNNVu0q8yQ-103" target="6iavBSCYv_kNNVu0q8yQ-103">
          <mxGeometry relative="1" as="geometry" />
        </mxCell>
        <mxCell id="6iavBSCYv_kNNVu0q8yQ-114" value="" style="endArrow=none;html=1;rounded=0;" edge="1" parent="1" source="6iavBSCYv_kNNVu0q8yQ-50">
          <mxGeometry width="50" height="50" relative="1" as="geometry">
            <mxPoint x="1000" y="-1350" as="sourcePoint" />
            <mxPoint x="1050" y="-1500" as="targetPoint" />
          </mxGeometry>
        </mxCell>
        <mxCell id="p0xR6fzfWMaHIoBI-8hZ-1" value="" style="endArrow=none;html=1;rounded=0;" edge="1" parent="1">
          <mxGeometry width="50" height="50" relative="1" as="geometry">
            <mxPoint x="1150" y="-1400" as="sourcePoint" />
            <mxPoint x="1150" y="-1300" as="targetPoint" />
          </mxGeometry>
        </mxCell>
        <mxCell id="p0xR6fzfWMaHIoBI-8hZ-2" value="" style="endArrow=none;html=1;rounded=0;exitX=0.993;exitY=0.663;exitDx=0;exitDy=0;exitPerimeter=0;" edge="1" parent="1" source="6iavBSCYv_kNNVu0q8yQ-50">
          <mxGeometry width="50" height="50" relative="1" as="geometry">
            <mxPoint x="1200" y="-1280" as="sourcePoint" />
            <mxPoint x="1150" y="-1400" as="targetPoint" />
          </mxGeometry>
        </mxCell>
        <mxCell id="p0xR6fzfWMaHIoBI-8hZ-4" value="" style="endArrow=none;html=1;rounded=0;entryX=0.5;entryY=1;entryDx=0;entryDy=0;" edge="1" parent="1" target="6iavBSCYv_kNNVu0q8yQ-21">
          <mxGeometry width="50" height="50" relative="1" as="geometry">
            <mxPoint x="1420" y="-700" as="sourcePoint" />
            <mxPoint x="1350" y="-810" as="targetPoint" />
          </mxGeometry>
        </mxCell>
        <mxCell id="p0xR6fzfWMaHIoBI-8hZ-9" value="" style="endArrow=none;html=1;rounded=0;exitX=1;exitY=0.5;exitDx=0;exitDy=0;" edge="1" parent="1" source="6iavBSCYv_kNNVu0q8yQ-2">
          <mxGeometry width="50" height="50" relative="1" as="geometry">
            <mxPoint x="2020" y="-1390" as="sourcePoint" />
            <mxPoint x="1950" y="-1415" as="targetPoint" />
          </mxGeometry>
        </mxCell>
        <mxCell id="p0xR6fzfWMaHIoBI-8hZ-10" value="" style="endArrow=none;html=1;rounded=0;" edge="1" parent="1">
          <mxGeometry width="50" height="50" relative="1" as="geometry">
            <mxPoint x="1700" y="-1300" as="sourcePoint" />
            <mxPoint x="1700" y="-1500" as="targetPoint" />
          </mxGeometry>
        </mxCell>
        <mxCell id="p0xR6fzfWMaHIoBI-8hZ-11" value="" style="endArrow=none;html=1;rounded=0;entryX=0;entryY=0.5;entryDx=0;entryDy=0;" edge="1" parent="1" target="6iavBSCYv_kNNVu0q8yQ-2">
          <mxGeometry width="50" height="50" relative="1" as="geometry">
            <mxPoint x="1700" y="-1415" as="sourcePoint" />
            <mxPoint x="1830" y="-1530" as="targetPoint" />
          </mxGeometry>
        </mxCell>
        <mxCell id="p0xR6fzfWMaHIoBI-8hZ-12" value="" style="endArrow=none;html=1;rounded=0;entryX=0.81;entryY=1.065;entryDx=0;entryDy=0;entryPerimeter=0;" edge="1" parent="1" target="6iavBSCYv_kNNVu0q8yQ-2">
          <mxGeometry width="50" height="50" relative="1" as="geometry">
            <mxPoint x="1880" y="-1300" as="sourcePoint" />
            <mxPoint x="1870" y="-1380" as="targetPoint" />
          </mxGeometry>
        </mxCell>
        <mxCell id="p0xR6fzfWMaHIoBI-8hZ-13" value="" style="endArrow=none;html=1;rounded=0;" edge="1" parent="1">
          <mxGeometry width="50" height="50" relative="1" as="geometry">
            <mxPoint x="1880" y="-1430" as="sourcePoint" />
            <mxPoint x="1880" y="-1520" as="targetPoint" />
          </mxGeometry>
        </mxCell>
      </root>
    </mxGraphModel>
  </diagram>
</mxfile>
